<svg id="Ebene_1" data-name="Ebene 1" xmlns="http://www.w3.org/2000/svg" viewBox="0 0 1500 1000">
  <defs>
    <style>
      .cls-1 {
        fill: #041e42;
      }

      .cls-2 {
        fill: #e6e6e6;
      }

      .cls-3 {
        fill: #24285b;
      }

      .cls-4 {
        fill: #fff;
        opacity: 0.46;
      }

      .cls-11, .cls-12, .cls-4, .cls-6, .cls-8 {
        isolation: isolate;
      }

      .cls-5 {
        fill: #c9c9c9;
      }

      .cls-6, .cls-7, .cls-8 {
        fill: #c1c1c1;
      }

      .cls-6 {
        opacity: 0.45;
      }

      .cls-8 {
        opacity: 0.43;
      }

      .cls-9 {
        fill: #ced9e7;
      }

      .cls-10 {
        fill: #f4a28c;
      }

      .cls-11 {
        fill: #ce8172;
        opacity: 0.31;
      }

      .cls-12 {
        opacity: 0.08;
      }

      .cls-13 {
        fill: #ffd200;
      }
    </style>
  </defs>
  <g>
    <rect class="cls-1" x="-7294.5" y="-4275.5" width="9625" height="9685"/>
    <path d="M2330-4275V5409H-7294V-4275H2330m1-1H-7295V5410H2331V-4276Z"/>
  </g>
  <g>
    <rect class="cls-2" y="109.41" width="1500" height="664.51"/>
    <rect class="cls-3" x="1243.82" y="472.14" width="183.08" height="301.77"/>
    <rect class="cls-3" x="1228.39" y="451.06" width="212.01" height="21.08"/>
    <path class="cls-3" d="M1321,401.09a6.76,6.76,0,0,0-9.55,0l0,0-8.26,8.31a6.69,6.69,0,0,0-1.32,7.62,28.56,28.56,0,0,0-7,18.8v15.24h3.69V435.82a25,25,0,0,1,5.75-16,6.71,6.71,0,0,0,8.45-.92l8.3-8.25a6.76,6.76,0,0,0,0-9.56Z"/>
    <path class="cls-3" d="M1347.45,401.09a6.76,6.76,0,0,0-9.55,0l0,0-8.31,8.31a6.72,6.72,0,0,0-1.37,7.62,28.51,28.51,0,0,0-7,18.8v15.24H1325V435.82a24.87,24.87,0,0,1,5.7-16,6.8,6.8,0,0,0,8.49-.92l8.3-8.25a6.76,6.76,0,0,0,0-9.56Z"/>
    <path class="cls-3" d="M1373.87,401.09a6.72,6.72,0,0,0-9.49,0l-.05,0-8.3,8.31a6.8,6.8,0,0,0-1.33,7.62,28.56,28.56,0,0,0-7,18.8v15.24h3.7V435.82a24.87,24.87,0,0,1,5.7-16,6.8,6.8,0,0,0,8.49-.92l8.26-8.25A6.85,6.85,0,0,0,1373.87,401.09Z"/>
    <rect class="cls-4" x="54.08" y="177.22" width="259.42" height="32.63"/>
    <rect class="cls-4" x="54.08" y="230.43" width="366.25" height="16.29"/>
    <rect class="cls-4" x="54.08" y="267.3" width="267.68" height="16.29"/>
    <rect class="cls-4" x="563.7" y="177.22" width="196.04" height="32.63"/>
    <rect class="cls-4" x="563.7" y="230.43" width="350.1" height="16.29"/>
    <rect class="cls-4" x="563.7" y="267.3" width="255.91" height="16.29"/>
    <rect class="cls-5" y="773.91" width="1500" height="115.59"/>
    <circle class="cls-6" cx="578.31" cy="453.16" r="54.53"/>
    <rect class="cls-6" x="699.69" y="406.84" width="153.65" height="213.47"/>
    <rect class="cls-7" x="533.13" y="548.76" width="105.55" height="71.55"/>
    <circle class="cls-8" cx="146.3" cy="520.15" r="72.6"/>
    <rect class="cls-8" x="137.58" y="408.99" width="126.18" height="126.18"/>
    <rect class="cls-8" x="304.92" y="408.99" width="94.1" height="209.09"/>
    <path class="cls-9" d="M1104.77,751.6s3.93,11.95,13.69,12.87,12.46,11.45,3.56,14.19-31.94-9.72-31.94-9.72l.64-15.56Z"/>
    <path class="cls-9" d="M969.06,751.6s-3.92,11.95-13.69,12.87-12.46,11.45-3.56,14.19,31.94-9.72,31.94-9.72l-.63-15.56Z"/>
    <path class="cls-3" d="M1068.36,521.88l38.56,231.86h-19.21l-48.37-125.85a213.18,213.18,0,0,0-85.79-105.64l-14.15-8.81Z"/>
    <path class="cls-3" d="M939.4,513.53l19.9,240.21h25.6s-6-180.75,40.24-219Z"/>
    <path class="cls-9" d="M933.15,312.34S834,419.71,765.17,452.48l13.05,33s166.93-57.36,198.37-102S933.15,312.34,933.15,312.34Z"/>
    <path class="cls-4" d="M933.15,312.34S834,419.71,765.17,452.48l13.05,33s166.93-57.36,198.37-102S933.15,312.34,933.15,312.34Z"/>
    <path class="cls-10" d="M1023.41,215.78a114.53,114.53,0,0,0-2.1,30.3A9.12,9.12,0,0,0,1031.5,254l.17,0a20.19,20.19,0,0,0,17.52-13.28l7.35-15.06a16.51,16.51,0,0,0-5.34-18.25C1042.07,198.66,1025.14,204.78,1023.41,215.78Z"/>
    <polygon class="cls-10" points="1055.22 228.24 1057.59 288.06 1024.51 287.01 1036.05 243.89 1055.22 228.24"/>
    <path class="cls-3" d="M1027.84,217.1a72.79,72.79,0,0,0,16.88.68,15.2,15.2,0,0,0-2,16.62,12.36,12.36,0,0,0,14.28,6.66l2.47-23.32a18.64,18.64,0,0,0-7.4-17.62,76,76,0,0,0-7.34-4.56c-6.39-3.47-16.75,0-22.23-5.38a4.55,4.55,0,0,0-6.43.48,4.62,4.62,0,0,0-.87,1.52c-1.87,7-1.91,18.26,7.21,23.32A17,17,0,0,0,1027.84,217.1Z"/>
    <path class="cls-10" d="M1040.89,233.62s1-7,6.11-5.8,3.88,11.23-3.37,11.32Z"/>
    <path class="cls-10" d="M1021.68,227.19l-5.89,6.38a2.92,2.92,0,0,0,.13,4.13,3,3,0,0,0,1.15.67l6.75,2.09Z"/>
    <path class="cls-11" d="M1033,253.24a21.51,21.51,0,0,0,11.36-5.06,34.07,34.07,0,0,1-15,20.12Z"/>
    <path class="cls-9" d="M939.4,515.77l55.63,4.1,73.33,5.48h0c1.55-2.28,64.25-92.68,63-161.77-.68-36.5-19.16-66.94-73.79-75.43l-22.49-.73a138.39,138.39,0,0,1-16.39-1.46c-17.38-2.6-69.54-5.84-97.83,43.49C886.51,389.18,939.4,515.77,939.4,515.77Z"/>
    <path class="cls-12" d="M993.79,520.51l74.57,4.84h0c1.55-2.28,64.25-92.68,63-161.77-42.07-19.62-110.43-26.19-110.43-26.19s-14,14.33,2.6,34.13c20.35,24.32,27.38,57.64,15.38,86.7-7.85,18.94-19,48.92-43.9,61.47Z"/>
    <path class="cls-9" d="M1026.74,313.48a51.56,51.56,0,0,1,58.68-17.16c38.88,13.69,105.46,46.73,112.63,112C1208.22,501.07,1060,521.43,1060,521.43l-4.79-23.6S1208.73,412,1060,368.69C1060,368.69,1000.46,348.84,1026.74,313.48Z"/>
    <path class="cls-4" d="M1026.74,313.48a51.56,51.56,0,0,1,58.68-17.16c38.88,13.69,105.46,46.73,112.63,112C1208.22,501.07,1060,521.43,1060,521.43l-4.79-23.6S1208.73,412,1060,368.69C1060,368.69,1000.46,348.84,1026.74,313.48Z"/>
    <path class="cls-10" d="M1054.94,501.26s-25.37.45-20.94,16.38,26,3.79,26,3.79Z"/>
    <path class="cls-10" d="M767.27,458c-.23-.64-24.91-3.33-26.46-1.64-3.52,3.74,5.47,5.25,5.47,5.25s-13.37,0-15.29,2.42.83,9.12,12.6,13.23,31.71,1.05,31.71,1.05Z"/>
    <path class="cls-13" d="M1012.14,288.61a5.08,5.08,0,0,0,2.28,3.83,11.36,11.36,0,0,0,5.7,1.64c2.7,0,8.13-1,7.67-4.56s-7.39-4-10-4.15a7,7,0,0,0-4,.54A3,3,0,0,0,1012.14,288.61Z"/>
    <path class="cls-13" d="M1015.33,291s-34.18,52.07-45.63,81.77l13,26.29,20.17-21.86s14.74-75.75,17.3-85.06Z"/>
  </g>
</svg>
