<svg id="Ebene_1" data-name="Ebene 1" xmlns="http://www.w3.org/2000/svg" viewBox="0 0 1500 1000">
  <defs>
    <style>
      .cls-1 {
        fill: #041e42;
      }

      .cls-2 {
        fill: #ced9e7;
      }

      .cls-12, .cls-3 {
        fill: #fff;
      }

      .cls-3, .cls-4, .cls-7, .cls-9 {
        isolation: isolate;
      }

      .cls-3 {
        opacity: 0.44;
      }

      .cls-4, .cls-6 {
        fill: #e6e6e6;
      }

      .cls-4 {
        opacity: 0.3;
      }

      .cls-5 {
        fill: #c1c1c1;
      }

      .cls-7 {
        opacity: 0.09;
      }

      .cls-8 {
        fill: #f4a28c;
      }

      .cls-9 {
        fill: #ce8172;
        opacity: 0.31;
      }

      .cls-10 {
        fill: #ffd200;
      }

      .cls-11 {
        fill: #24285b;
      }

      .cls-13 {
        fill: none;
        stroke: #24285b;
        stroke-linecap: round;
        stroke-linejoin: round;
        stroke-width: 1.01px;
      }
    </style>
  </defs>
  <g>
    <rect class="cls-1" x="-2680.5" y="-218.5" width="5067" height="4126"/>
    <path d="M2386-218V3907H-2680V-218H2386m1-1H-2681V3908H2387V-219Z"/>
  </g>
  <path class="cls-2" d="M845.87,277.65s134.46,67.32,193,217.73l-164.82,9.29Z"/>
  <path class="cls-3" d="M874.05,504.67l-28.18-227s134.46,67.32,193,217.73"/>
  <ellipse class="cls-4" cx="708.37" cy="1015.08" rx="502.91" ry="56.06"/>
  <rect class="cls-5" x="377.58" y="662.38" width="67.83" height="338.21"/>
  <rect class="cls-5" x="965.24" y="662.38" width="67.83" height="338.21"/>
  <rect class="cls-6" x="276.24" y="527.65" width="848.49" height="220.07" rx="36.66"/>
  <path class="cls-7" d="M492.9,747.73H970.4s-35.81-43.87-27.88-97.25S1011,550.16,1011,550.16L901,523.39,720.14,544.45l-167-10.91Z"/>
  <path class="cls-2" d="M691.53,244.82S491.75,268.31,509.66,386,631.5,712.64,631.5,712.64l218.63-11.13S904.57,451.08,909.82,386,830.26,226.19,691.53,244.82Z"/>
  <rect class="cls-6" x="276.24" y="802.38" width="848.49" height="69.54" rx="19.95"/>
  <polygon class="cls-8" points="740.82 146.59 691.58 244.82 742.35 300.37 760.98 187.27 740.82 146.59"/>
  <path class="cls-9" d="M758.81,205.09A39.79,39.79,0,0,1,743.63,188s-5.24,19.45,9.81,45Z"/>
  <path class="cls-8" d="M790.1,152.86s-2.81,33.43-12.11,54.36a17.05,17.05,0,0,1-22.34,8.53c-10.48-4.82-23.23-14.41-23.91-32.53l-5-30.74A30.18,30.18,0,0,1,745.34,123C766.31,113,792.83,132.57,790.1,152.86Z"/>
  <path class="cls-8" d="M787.25,173.79l7,14.33a5.41,5.41,0,0,1-4.73,7.76h-13Z"/>
  <path class="cls-10" d="M718.14,186.24l1.28-45.57s-23.2-11.38-11.17-25.16,18.67-.34,24.38-18.54,21.7-17.52,29.25-4.26,6.82-2.43,20.55-.56S797.9,101,795.22,111s19.48,5,20.63,19.06-1.7,26.56-35,19S763.11,175.5,718.14,186.24Z"/>
  <path class="cls-8" d="M750.11,175.12s1.92-12.79-7.8-13.43-12.79,17.77,0,21.7Z"/>
  <path class="cls-7" d="M602.85,333.71s60.93,51.16,53.77,171S758.94,706.16,758.94,706.16l-127.31,6.48s-43.78-90.3-63.1-140.69S602.85,333.71,602.85,333.71Z"/>
  <path class="cls-8" d="M1011.37,557.2c40.12-11.17,43.23-68.21,4.26-82.92l-1-.34c-33.77-12.11-178,14.7-178,14.7S774,475.85,776.89,501.86s30.35,37.73,66.38,16C843.05,517.89,931.13,579.5,1011.37,557.2Z"/>
  <rect class="cls-11" x="832.77" y="494.87" width="38.1" height="18.92" transform="matrix(0.09, -1, 1, 0.09, 273.16, 1307.51)"/>
  <path class="cls-8" d="M488.17,445.37l-64.5,334.21s-43-1-40.63,22.8h86s135-277.11,133.78-364.47S510.51,329,488.17,445.37Z"/>
  <circle class="cls-12" cx="846.68" cy="490.99" r="12.53"/>
  <path class="cls-2" d="M508.25,343.22c-21.66,32.91-46,85.91-52.35,162.78l135,38.37s41.52-106.59,28.39-178.77C609.51,311.71,538.26,297.43,508.25,343.22Z"/>
  <path class="cls-3" d="M508.25,343.22c-21.66,32.91-46,85.91-52.35,162.78l135,38.37s41.52-106.59,28.39-178.77C609.51,311.71,538.26,297.43,508.25,343.22Z"/>
  <path class="cls-11" d="M631.5,712.64,571.82,777.1a85.28,85.28,0,0,0-19.32,82L589,983.49l32.91,1.15-8-120.69a48.13,48.13,0,0,1,36.46-49.84l22.21-5.5a229,229,0,0,1,55.42-6.74c49.33,0,144.4,4.27,170,35.3,35.05,42.34,93.8,157,93.8,157l31.89-19.1S982.17,751.27,850,701.51Z"/>
  <path class="cls-2" d="M999.13,989.84l10.49,22.09,40.16-11.47a9,9,0,0,0,.47-17.05,63.92,63.92,0,0,0-34.62-3.37Z"/>
  <path class="cls-2" d="M594.5,983.83a78.48,78.48,0,0,0-18.85,5.2,9.85,9.85,0,0,0,3.93,18.89h40.58l-3.07-24.09Z"/>
  <ellipse class="cls-11" cx="1073.96" cy="195.24" rx="106.67" ry="100.32"/>
  <polygon class="cls-11" points="1015.25 215.28 953.43 302.29 1040.91 245.42 1015.25 215.28"/>
  <circle class="cls-12" cx="1076" cy="195.24" r="49.84"/>
  <polyline class="cls-13" points="1076 169.1 1076 198.74 1097.83 196.99"/>
</svg>
