<svg id="Ebene_1" data-name="Ebene 1" xmlns="http://www.w3.org/2000/svg" viewBox="0 0 1500 1000">
  <defs>
    <style>
      .cls-1 {
        fill: #041e42;
      }

      .cls-15, .cls-2, .cls-3 {
        fill: #e6e6e6;
      }

      .cls-10, .cls-12, .cls-13, .cls-14, .cls-2, .cls-3, .cls-8, .cls-9 {
        isolation: isolate;
      }

      .cls-2 {
        opacity: 0.45;
      }

      .cls-3 {
        opacity: 0.3;
      }

      .cls-4 {
        fill: #ffd200;
      }

      .cls-5 {
        fill: #f4a28c;
      }

      .cls-6 {
        fill: #24285b;
      }

      .cls-7 {
        fill: #ced9e7;
      }

      .cls-11, .cls-12, .cls-13, .cls-14, .cls-8 {
        fill: #fff;
      }

      .cls-8 {
        opacity: 0.46;
      }

      .cls-9 {
        fill: #ce8172;
        opacity: 0.31;
      }

      .cls-10, .cls-14 {
        opacity: 0.08;
      }

      .cls-12 {
        opacity: 0.27;
      }

      .cls-13 {
        opacity: 0.55;
      }

      .cls-16 {
        fill: #c1c1c1;
      }
    </style>
  </defs>
  <g>
    <rect class="cls-1" x="-407.5" y="-1654.5" width="5067" height="4126"/>
    <path d="M4659-1654V2471H-407V-1654H4659m1-1H-408V2472H4660V-1655Z"/>
  </g>
  <ellipse class="cls-2" cx="736.65" cy="991.52" rx="477.79" ry="57.24"/>
  <path class="cls-3" d="M1212.14,242.18c122.24,74.46,194.65,211,183.27,353.76-5.88,72.93-33,143.3-104.63,181.7C1099.7,879.94,265.54,881.85,142.07,700.92S64.54,262.6,333,155.36C565.65,62.27,896.52,50,1212.14,242.18Z"/>
  <path class="cls-4" d="M1138,606.86h-4.26V586.23A14.28,14.28,0,0,0,1119.52,572h-63.21a14.27,14.27,0,0,0-14.23,14.24v20.63h-4.26V586.23a18.53,18.53,0,0,1,18.49-18.5h63.25a18.54,18.54,0,0,1,18.5,18.5Z"/>
  <path class="cls-5" d="M1069.1,535.51a25.75,25.75,0,0,1-2.39,5.2c-3.83,6.18-6.69,10.27-6.52,17.9,0,6.65-.42,27.15,5.84,30.13a110.34,110.34,0,0,0,19,7c45.74,12.11,31.84-58.82,21.91-81.28a20.12,20.12,0,0,0-4.26-6.61,23.47,23.47,0,0,0-11.13-4.68C1070.89,497.91,1074.34,520.5,1069.1,535.51Z"/>
  <path class="cls-6" d="M258.34,300.83h0a5.58,5.58,0,0,1,5.59,5.58v65.34H252.72V306.41a5.58,5.58,0,0,1,5.58-5.58Z"/>
  <path class="cls-5" d="M313.28,285s-33-20.8-39.59-19.82A62.63,62.63,0,0,0,248.37,278c-11.81,9.29-13.81,20.29-11.21,34.78a19.81,19.81,0,0,0,4.26,10.49,7.16,7.16,0,0,0,10.1.76l.09-.08a27.44,27.44,0,0,0,1.57-2.3,15,15,0,0,1,3.33-3.07,10.19,10.19,0,0,1,3.45-1.88,3.1,3.1,0,0,1,3.45,1.33,10.18,10.18,0,0,1,.6,2.55,5.33,5.33,0,0,0,4.69,3.58,37.08,37.08,0,0,0,10-1.7c14.49-3,28.86-7.16,43.65-3.28Z"/>
  <path class="cls-6" d="M301.9,521a1.28,1.28,0,0,1-.55,0,1.79,1.79,0,0,1-1.21-2.23v0l45-147.38a1.91,1.91,0,0,1,2.54-1,2,2,0,0,1,1,1l44.92,147.38a1.79,1.79,0,0,1-1.16,2.25h0a1.84,1.84,0,0,1-2.31-1.19h0L346.78,378,303.56,519.69A1.87,1.87,0,0,1,301.9,521Z"/>
  <path class="cls-4" d="M295.21,519.14H398.36v2.77a45.56,45.56,0,0,1-45.57,45.56h-12a45.56,45.56,0,0,1-45.56-45.56h0v-2.77Z"/>
  <path class="cls-6" d="M214.87,521a1.84,1.84,0,0,1-1.75-1.28L169.77,378,126.68,519.69a1.83,1.83,0,0,1-2.26,1.2,1.79,1.79,0,0,1-1.25-2.2l0-.06,45-147.39a1.93,1.93,0,0,1,2.54-1,2,2,0,0,1,1,1l45,147.39a1.8,1.8,0,0,1-1.18,2.24l-.06,0A1.14,1.14,0,0,1,214.87,521Z"/>
  <path class="cls-4" d="M118.33,519.14H221.47v2.77a45.56,45.56,0,0,1-45.56,45.56h-12a45.56,45.56,0,0,1-45.56-45.56h0v-2.77Z"/>
  <path class="cls-6" d="M346.78,373.58h-177a1.83,1.83,0,1,1-.55-3.62,1.69,1.69,0,0,1,.55,0H346.65a1.83,1.83,0,0,1,0,3.62Z"/>
  <path class="cls-7" d="M664.19,189.16S430.71,310.84,308.29,276v48.46s86.4,50,192,30.18S664.19,295,664.19,295Z"/>
  <path class="cls-8" d="M664.19,189.16S430.71,310.84,308.29,276v48.46s86.4,50,192,30.18S664.19,295,664.19,295Z"/>
  <path class="cls-5" d="M670,83.41a143.33,143.33,0,0,0,2.47,37.89,11.59,11.59,0,0,0,14.19,8.06,25.59,25.59,0,0,0,19.53-19.44l6.47-20.07a20.54,20.54,0,0,0-9.42-21.7C690.23,59,670.33,69.43,670,83.41Z"/>
  <polygon class="cls-5" points="708.73 95.64 730.25 167.42 689.89 176.46 690.45 120.58 708.73 95.64"/>
  <path class="cls-5" d="M669.77,98l-6.22,8.91a3.67,3.67,0,0,0,2.39,5.71l8.78,1.49Z"/>
  <path class="cls-9" d="M690.49,128s5.2-1.11,14.28-10.06c0,0,2,14.83-14.58,26.47Z"/>
  <path class="cls-6" d="M700.33,97.31c-.51,3.11-2.72,5.75-3.45,9a9.79,9.79,0,0,0,0,4.81,6.94,6.94,0,0,0,6.86,4.65c7.67-.34,11.21-13.89,13.77-19.69,0,0,8.14-24.38.85-36.23-5.75-9.38-17.05-6.69-24.59-13.43-4.26-4.26-7.63-10.27-13.51-11.63s-11.55,2.94-15.13,7.71a33.28,33.28,0,0,0-6.78,17,24.26,24.26,0,0,0,5.12,17.18c5.49,6.52,17,8,25.1,8a12.1,12.1,0,0,1,11.76,10A7.6,7.6,0,0,1,700.33,97.31Z"/>
  <path class="cls-5" d="M692.53,96.63s0-8.78,6.65-8.23,6.65,13.3-2.3,14.62Z"/>
  <path class="cls-7" d="M907.82,349.84c-26.26,193.68-43.31,249-43.31,249l-199.68,1.92s-1.32-20-4.26-47.78c-5.8-51.79-17.69-130.77-38.36-157.7-31.71-41.22-94.11-162.82,60-217L717,170.45s75.31-9.29,132.13,24.72C888.81,219.12,919.41,264.56,907.82,349.84Z"/>
  <path class="cls-10" d="M907.82,349.84c-26.26,193.68-43.31,249-43.31,249l-199.68,1.92s-1.32-20-4.26-47.78a241.26,241.26,0,0,1,41.64-31.71c13.08-8.23,26.77-16,37.42-27.15,15.43-16.16,23.27-37.89,29.84-59.25,18.58-62.61,30.13-79,29-144.32l22.89-89.84a61.69,61.69,0,0,1,27.79-5.46C888.81,219.12,919.41,264.56,907.82,349.84Z"/>
  <path class="cls-11" d="M669.22,183.23S654.81,380.87,717,468.8c0,0-3.5-208.25,50-298.1C767,170.45,717,156.77,669.22,183.23Z"/>
  <path class="cls-12" d="M669.22,183.23,630.09,294.61l31.29,53.87-11.81,52.13L717,468.8S661.16,418.55,669.22,183.23Z"/>
  <path class="cls-6" d="M690.32,175.52c.25-5.67,4-4.6,9.42-6.18s11.08-7.67,15.81-2.39c9.12,10.1-7,29.24-7,29.24H693.6A85.14,85.14,0,0,1,690.32,175.52Z"/>
  <path class="cls-6" d="M693.6,196h14.92s1.4,115.76,11.25,184.17L717,468.8s-32.18-43-37.3-98C679.7,370.52,681.24,262.13,693.6,196Z"/>
  <path class="cls-7" d="M669.22,183.23,687.5,196l14.62-21.31,15.26,19L767,170.45S706.81,146.24,669.22,183.23Z"/>
  <path class="cls-13" d="M669.22,183.23,687.5,196l14.62-21.31,15.26,19L767,170.45S706.81,146.24,669.22,183.23Z"/>
  <path class="cls-12" d="M767,170.45l8.27,147.26-38.61,23.23,22.8,47.95-42.62,79.83S714.44,259.23,767,170.45Z"/>
  <rect class="cls-6" x="532.53" y="507.93" width="408.23" height="466.33"/>
  <rect class="cls-6" x="489.27" y="946.94" width="494.71" height="49.95"/>
  <rect class="cls-14" x="489.27" y="946.94" width="494.71" height="49.95"/>
  <rect class="cls-6" x="489.27" y="505.8" width="494.71" height="49.95"/>
  <rect class="cls-14" x="489.27" y="505.8" width="494.71" height="49.95"/>
  <rect class="cls-14" x="582.74" y="612.48" width="307.77" height="297.16"/>
  <path class="cls-7" d="M830.67,185.88s240.73,98,265.75,140.05,23.83,204.8,23.83,204.8l-59.67-3.58c-1.24-6.48-37.21-147.64-54-167.84-14.28-17.05-202.37-31.63-208.12-68.8S816.22,184.21,830.67,185.88Z"/>
  <rect class="cls-15" x="532.53" y="421.92" width="160" height="83.88"/>
  <rect class="cls-15" x="518.76" y="393.11" width="152.03" height="28.81"/>
  <rect class="cls-16" x="582.53" y="460.32" width="109.97" height="4.05"/>
  <rect class="cls-16" x="533.34" y="490.33" width="109.97" height="4.05"/>
  <rect class="cls-16" x="555.76" y="443.14" width="109.97" height="4.05"/>
  <rect class="cls-16" x="560.79" y="403.46" width="109.97" height="4.05"/>
  <rect class="cls-16" x="533.34" y="421.92" width="88.23" height="3.2"/>
  <rect class="cls-4" x="980.06" y="602.42" width="215.67" height="154.38"/>
  <polygon class="cls-8" points="1162.27 659.66 1013.52 659.66 980.06 602.42 1195.73 602.42 1162.27 659.66"/>
</svg>
