<svg id="Ebene_1" data-name="Ebene 1" xmlns="http://www.w3.org/2000/svg" viewBox="0 0 1500 1000">
  <defs>
    <style>
      .cls-1 {
        fill: #041e42;
      }

      .cls-2, .cls-4 {
        fill: #e6e6e6;
      }

      .cls-12, .cls-13, .cls-14, .cls-15, .cls-16, .cls-3, .cls-4, .cls-7 {
        isolation: isolate;
      }

      .cls-3 {
        opacity: 0.08;
      }

      .cls-16, .cls-4 {
        opacity: 0.45;
      }

      .cls-5 {
        fill: #ced9e7;
      }

      .cls-6 {
        fill: #24285b;
      }

      .cls-13, .cls-14, .cls-15, .cls-7, .cls-8 {
        fill: #fff;
      }

      .cls-7 {
        opacity: 0.46;
      }

      .cls-9 {
        fill: #f4a28c;
      }

      .cls-10, .cls-12, .cls-16 {
        fill: #c9c9c9;
      }

      .cls-11 {
        fill: #ffd200;
      }

      .cls-12 {
        opacity: 0.44;
      }

      .cls-13 {
        opacity: 0.63;
      }

      .cls-14 {
        opacity: 0.56;
      }

      .cls-15 {
        opacity: 0.19;
      }
    </style>
  </defs>
  <g>
    <rect class="cls-1" x="-5019.5" y="-4275.5" width="9625" height="9685"/>
    <path d="M4605-4275V5409H-5019V-4275H4605m1-1H-5020V5410H4606V-4276Z"/>
  </g>
  <g>
    <rect class="cls-2" x="336.55" y="92" width="474.42" height="556.82"/>
    <rect class="cls-2" x="869.31" y="126.48" width="318.94" height="297.02"/>
    <rect class="cls-2" x="1017.65" y="473.31" width="227.35" height="114.13"/>
    <path class="cls-3" d="M735.55,392.17s-24.36-6.33-30.45,10.92-62.63-5.21-69.43,46c-3.79,28.56-58,80-128.58,95.69S431.8,648.85,431.8,648.85H623.55L750.81,462.24Z"/>
    <ellipse class="cls-4" cx="774.19" cy="852.45" rx="379.55" ry="85.44"/>
    <path class="cls-5" d="M716.23,469s-166-17.6-159.78,70.24S655.8,814.14,655.8,814.14H859.73s154.77-237.36,79.48-313.7S846.71,489.65,716.23,469Z"/>
    <polygon class="cls-6" points="655.49 842.7 779.61 876.2 889.71 820.3 906.43 790.52 795.44 790.52 618.88 790.52 655.49 842.7"/>
    <path class="cls-5" d="M636.14,564.12c15.53-52-13.84-108.82-69.4-67.2-38.1,28.53-83.27,119.52-85.61,203.67-5.41,193.51,232-14.65,261.46-125.47l-29.2-17.26s-49.23,92.82-102.87,112.92C571.82,685.29,613.16,641,636.14,564.12Z"/>
    <path class="cls-7" d="M636.14,564.12c15.53-52-13.84-108.82-69.4-67.2-38.1,28.53-83.27,119.52-85.61,203.67-5.41,193.51,232-14.65,261.46-125.47l-29.2-17.26s-49.23,92.82-102.87,112.92C571.82,685.29,613.16,641,636.14,564.12Z"/>
    <path class="cls-8" d="M716.23,469s-25.55,40.2-.51,54.58,33.06-2,33.06-2,18.65,22,35.33,4.94,14.31-51-2.68-66.69S716.23,469,716.23,469Z"/>
    <path class="cls-9" d="M722.05,470.23a197,197,0,0,1,2.34,22.46c.33,10.16,3.62,25.55,19.86,28.53,25,4.63,31.64-34.89,31.64-34.89s15.73-37.22-11.34-42.12C740.05,439.47,717.08,436.22,722.05,470.23Z"/>
    <path class="cls-3" d="M818.42,526s-15.5,32.55,23.68,99.31c22.44,38.24-46.69,102-46.69,102l-172,17.22,32.38,69.6H859.73s89.6-145.77,96.5-220.75S818.42,526,818.42,526Z"/>
    <path class="cls-9" d="M774.19,487.79s1.42-12,11.88-11.51S792.43,499.23,774.19,487.79Z"/>
    <path class="cls-9" d="M728.07,481.09s3.66-11.51-6.05-15.4S706.72,484,728.07,481.09Z"/>
    <circle class="cls-10" cx="1073.58" cy="530.35" r="31.03"/>
    <polygon class="cls-11" points="663.58 779.93 649.2 648.85 869.31 648.85 847.35 786.63 850.5 804.3 661.25 805.79 663.58 779.93"/>
    <path class="cls-3" d="M1054.26,535.16s59.25,7,71.06,52.28h-40.13Z"/>
    <path class="cls-5" d="M752.17,842.7s41.78,14.62,27.44,33.5-37-12.49-37-12.49Z"/>
    <path class="cls-3" d="M869.31,648.85l-43.62,57.52a225,225,0,0,1-99.27,74.44l-65.17,24.87,174.53-1.38H850.5l-3.15-17.67Z"/>
    <path class="cls-6" d="M722.05,470.23s-40.6-5.82-22.4-35.6,22.1-7.48,30.66-30.45,16.27-27.55,28.79-17.7.41,30.45,19.36,24.74S810.4,400,814,415.68s0,23.25-12.22,28.63,7,26.53-23.69,35.15-46.66-24.9-46.66-24.9Z"/>
    <path class="cls-6" d="M753.45,835.43s-168.81-86.19-183.19-40.34,102,72.48,177,75.26Z"/>
    <circle class="cls-8" cx="761.44" cy="719.43" r="18.85"/>
    <path class="cls-6" d="M794.5,842.16s134.63-133.42,162.41-94.1-75.12,100.06-145.8,125.5Z"/>
    <path class="cls-5" d="M799.77,852.24s-39.89,35.53-16.91,46,28-24.67,28-24.67Z"/>
    <path class="cls-5" d="M818.42,526a57,57,0,0,1,50.75-62.4c30.46-3.38,70.45-1.25,106,21,69,43.27,145.5,77.82,126.52,156.19S946.05,752.15,946.05,752.15l-18.27-29.77s120.73-40.61,98.77-104.59C1006.65,560.37,831.41,656.36,818.42,526Z"/>
    <path class="cls-7" d="M818.42,526a57,57,0,0,1,50.75-62.4c30.46-3.38,70.45-1.25,106,21,69,43.27,145.5,77.82,126.52,156.19S946.05,752.15,946.05,752.15l-18.27-29.77s120.73-40.61,98.77-104.59C1006.65,560.37,831.41,656.36,818.42,526Z"/>
    <path class="cls-9" d="M930.79,727.32s-38.1,25.75-24.26,32.85,37.22-11.77,37.22-11.77Z"/>
    <path class="cls-9" d="M718.5,560.88s13.53-33.44,32.31-30.73-10.45,43.65-10.45,43.65Z"/>
    <rect class="cls-10" x="389.71" y="158.42" width="137.68" height="188.74"/>
    <rect class="cls-10" x="905.04" y="162.82" width="106.48" height="98.5"/>
    <rect class="cls-12" x="905.04" y="288.83" width="106.48" height="98.5"/>
    <rect class="cls-12" x="1046.41" y="288.83" width="106.48" height="98.5"/>
    <polygon class="cls-13" points="912.99 242.78 933.8 210.63 958.3 239.29 981.68 198.15 1003.57 243.39 1003.57 254.75 912.99 254.75 912.99 242.78"/>
    <circle class="cls-8" cx="957.45" cy="194.25" r="10.62"/>
    <rect class="cls-10" x="1047.26" y="162.82" width="106.48" height="98.5"/>
    <polygon class="cls-13" points="1055.21 242.78 1076.02 210.63 1100.48 239.29 1123.9 198.15 1145.79 243.39 1145.79 254.75 1055.21 254.75 1055.21 242.78"/>
    <circle class="cls-8" cx="1099.63" cy="194.25" r="10.62"/>
    <rect class="cls-11" x="255" y="414.36" width="205.36" height="117.85"/>
    <path class="cls-6" d="M330.09,502.3a4.45,4.45,0,0,1-2.91-1L296.72,477.2a4.7,4.7,0,0,1-1.79-3.66,4.78,4.78,0,0,1,1.76-3.69l30.45-24.53a4.71,4.71,0,0,1,5.89,7.35l-25.89,20.81L333,493.78a4.7,4.7,0,0,1-2.91,8.39Z"/>
    <path class="cls-6" d="M385.24,502.3a4.64,4.64,0,0,1-3.69-1.79,4.71,4.71,0,0,1,.78-6.6l25.85-20.3L382.3,452.8a4.76,4.76,0,1,1,5.88-7.48h0l30.46,24.53a4.81,4.81,0,0,1,1.76,3.69,4.68,4.68,0,0,1-1.8,3.66l-30.45,24.09A4.47,4.47,0,0,1,385.24,502.3Z"/>
    <path class="cls-6" d="M344.87,502.3a5.09,5.09,0,0,1-2-.4,4.74,4.74,0,0,1-2.3-6.26l22.2-48.59a4.7,4.7,0,0,1,8.66,3.67l-.1.22-22.2,48.52A4.73,4.73,0,0,1,344.87,502.3Z"/>
    <circle class="cls-8" cx="458.6" cy="202.68" r="19.05"/>
    <rect class="cls-14" x="420.43" y="245.72" width="78.74" height="15.6"/>
    <rect class="cls-15" x="420.43" y="281.01" width="78.74" height="15.6"/>
    <rect class="cls-7" x="573.74" y="158.42" width="196.76" height="116.57"/>
    <rect class="cls-8" x="573.74" y="308.28" width="196.76" height="38.88"/>
    <rect class="cls-10" x="713.39" y="308.28" width="57.12" height="38.88"/>
    <rect class="cls-10" x="1128.16" y="510.63" width="76.13" height="13.81"/>
    <rect class="cls-16" x="1128.16" y="536.28" width="76.13" height="13.81"/>
  </g>
</svg>
