<svg id="Ebene_1" data-name="Ebene 1" xmlns="http://www.w3.org/2000/svg" viewBox="0 0 1500 1000">
  <defs>
    <style>
      .cls-1 {
        fill: #041e42;
      }

      .cls-2, .cls-3 {
        fill: #e6e6e6;
      }

      .cls-10, .cls-11, .cls-2, .cls-3, .cls-5, .cls-7, .cls-9 {
        isolation: isolate;
      }

      .cls-2 {
        opacity: 0.45;
      }

      .cls-3 {
        opacity: 0.3;
      }

      .cls-4 {
        fill: #24285b;
      }

      .cls-13, .cls-5, .cls-7, .cls-9 {
        fill: #fff;
      }

      .cls-5 {
        opacity: 0.07;
      }

      .cls-6 {
        fill: #ced9e7;
      }

      .cls-7 {
        opacity: 0.46;
      }

      .cls-8 {
        fill: #f4a28c;
      }

      .cls-9 {
        opacity: 0.39;
      }

      .cls-10 {
        fill: #ce8172;
        opacity: 0.31;
      }

      .cls-11 {
        opacity: 0.08;
      }

      .cls-12 {
        fill: #ffd200;
      }
    </style>
  </defs>
  <g>
    <rect class="cls-1" x="-7288.5" y="-218.5" width="9625" height="9685"/>
    <path d="M2336-218V9466H-7288V-218H2336m1-1H-7289V9467H2337V-219Z"/>
  </g>
  <g>
    <ellipse class="cls-2" cx="750" cy="921.8" rx="527.46" ry="41.19"/>
    <path class="cls-3" d="M422.94,189c-119.4,38.84-224.48,141.14-230.29,282.1-3.24,78.39,13.82,279.49,262.25,331.73,398.76,83.88,757.39,55.52,832.68-146.38,67.06-179.79-39.19-419-238.34-468.31C908.89,153.43,656.19,113.13,422.94,189Z"/>
    <rect class="cls-4" x="383.71" y="411.94" width="473.55" height="435.03"/>
    <rect class="cls-4" x="351.53" y="255.66" width="534.94" height="206.74" rx="15.68"/>
    <rect class="cls-4" x="352.99" y="481.25" width="534.94" height="206.74" rx="15.68"/>
    <rect class="cls-4" x="351.53" y="706.87" width="534.94" height="206.74" rx="15.68"/>
    <rect class="cls-5" x="351.53" y="255.66" width="534.94" height="206.74" rx="15.68"/>
    <rect class="cls-5" x="352.99" y="481.25" width="534.94" height="206.74" rx="15.68"/>
    <rect class="cls-5" x="351.53" y="706.87" width="534.94" height="206.74" rx="15.68"/>
    <circle class="cls-6" cx="814.61" cy="386.75" r="16.39"/>
    <circle class="cls-7" cx="766.4" cy="386.75" r="16.39"/>
    <circle class="cls-7" cx="718.15" cy="386.75" r="16.39"/>
    <circle class="cls-6" cx="814.61" cy="616.93" r="16.39"/>
    <circle class="cls-7" cx="766.4" cy="616.93" r="16.39"/>
    <circle class="cls-7" cx="718.15" cy="616.93" r="16.39"/>
    <circle class="cls-6" cx="814.61" cy="847.08" r="16.39"/>
    <circle class="cls-7" cx="766.4" cy="847.08" r="16.39"/>
    <circle class="cls-7" cx="718.15" cy="847.08" r="16.39"/>
    <rect class="cls-6" x="411.47" y="232.68" width="416.57" height="23.55"/>
    <path class="cls-8" d="M1080.6,301.91a107.09,107.09,0,0,0-6.74,27.76,8.63,8.63,0,0,0,8.29,8.94h0a19.05,19.05,0,0,0,18.35-9.51l9.34-13a15.44,15.44,0,0,0-1.86-17.82C1100.59,289,1084,292,1080.6,301.91Z"/>
    <path class="cls-6" d="M1185.36,886.17s4.56,12.72,16,13.68,14.5,12.19,4.17,15.11-37-10.33-37-10.33l.75-16.57Z"/>
    <path class="cls-6" d="M1027.54,886.17s-4.56,12.72-16,13.68S997,912,1007.34,915s36.95-10.33,36.95-10.33l-.75-16.57Z"/>
    <path class="cls-6" d="M1012.83,377.59s-82,16.57-75.15,92.86S870,588.75,915.62,632.9s106.43,19.31,106.43,19.31Z"/>
    <path class="cls-9" d="M1012.83,377.59s-82,16.57-75.15,92.86S870,588.75,915.62,632.9s106.43,19.31,106.43,19.31Z"/>
    <polygon class="cls-8" points="1105.61 319.41 1104.9 375.7 1073.86 373.1 1086.83 333.2 1105.61 319.41"/>
    <path class="cls-8" d="M1077.18,312.14l-6.49,5.06a2.74,2.74,0,0,0-.52,3.84,2.79,2.79,0,0,0,.95.79l6,3Z"/>
    <path class="cls-10" d="M1085.23,338.54a26.46,26.46,0,0,0,12.47-4s-1.89,11.09-16.39,15.72Z"/>
    <path class="cls-6" d="M1046.32,370.25A397.46,397.46,0,0,1,1195,402a57.37,57.37,0,0,1,30.39,75.22c-.45,1.07-.94,2.13-1.46,3.17L1143,641.73l-149.93-8.91s-27.3-90.64-21.81-193.23A73.66,73.66,0,0,1,1046.32,370.25Z"/>
    <path class="cls-4" d="M1022.05,634.61s-6.16-231.08,2.36-261.44l-9,1.32a424.25,424.25,0,0,0-7.13,91.79c1.18,44.79,4.78,172.07,5.81,172.28A40.55,40.55,0,0,0,1022.05,634.61Z"/>
    <polygon class="cls-4" points="1102.62 639.38 1129.48 380.62 1116.62 375.7 1085.34 648.4 1102.62 639.38"/>
    <path class="cls-4" d="M1143,641.77l44.83,246.68h-22.41l-56.16-133.91a232.57,232.57,0,0,0-99.77-112.31l-16.42-9.41Z"/>
    <path class="cls-11" d="M1155.42,423.49s-35.38,26.12-28.5,72.83,13.86,83-29.18,72.15-66.24-111-66.24-111l-50.24,1.25L990,570.4l29.15,2a31.61,31.61,0,0,1,28.72,25.23l7.84,39,87.51,5.17,12.4-18.39,54.59-59.25,6.62-94.29Z"/>
    <rect class="cls-12" x="994.26" y="424.87" width="97.38" height="133.37" transform="translate(-30.95 71.89) rotate(-3.89)"/>
    <path class="cls-4" d="M993.09,632.82l23.16,255.56H1046s-7-192.42,46.78-233.21Z"/>
    <path class="cls-6" d="M1152.08,437.92a36.52,36.52,0,0,1,65.34-21.38c17.21,21.95,33,58.58,31.75,118.72-2.81,128.28-78.17,162.81-194.48,22.31l22.88-17.82s45.86,39.06,87.8,39.63C1196.58,579.8,1149.94,499.21,1152.08,437.92Z"/>
    <path class="cls-9" d="M1152.08,437.92a36.52,36.52,0,0,1,65.34-21.38c17.21,21.95,33,58.58,31.75,118.72-2.81,128.28-78.17,162.81-194.48,22.31l22.88-17.82s45.86,39.06,87.8,39.63C1196.58,579.8,1149.94,499.21,1152.08,437.92Z"/>
    <path class="cls-11" d="M994,489.12s33.35,61.5,100.59,44.15l1.46,21.38-97.14,6.91Z"/>
    <path class="cls-8" d="M1073.4,543.17s-13.68-24.15-30.47-17.81,11.76,32.07,11.76,32.07Z"/>
    <path class="cls-4" d="M1099.2,318.8a6.28,6.28,0,0,1-7.13,4,24.67,24.67,0,0,0-18.6,2.17c-9.94,6.49-1.17,21.09,10.26,18.32s28-21.38,28-21.38,11.33-15.68,8.76-25.8-27.65-25.34-39.19-8.23c-7.38,10.94,3.56,16.67,12.29,19.42a9.06,9.06,0,0,1,5.83,11.39l-.13.37Z"/>
    <path class="cls-8" d="M1093.75,316.48s2-6.3,6.62-4.41,1.78,11-4.95,10Z"/>
    <path class="cls-12" d="M1121.9,309.36l-48-25.73,8.66-1.39a31.47,31.47,0,0,1,15.68-15.46c10.69-4.1,27.79,8.19,30.71,19.35S1121.9,309.36,1121.9,309.36Z"/>
    <rect class="cls-12" x="258.68" y="512.82" width="200.64" height="143.63"/>
    <path class="cls-13" d="M418.84,601.4a16.57,16.57,0,0,0-16.57-16.57,17.06,17.06,0,0,0-2.67.21,22.33,22.33,0,0,0-19.67-11.76h-.82a25.21,25.21,0,0,0,.82-6.41,26.54,26.54,0,1,0-53.05-1.94c0,.64,0,1.29,0,1.94a27.13,27.13,0,0,0,.81,6.41h-.81a22.35,22.35,0,1,0-.05,44.69h77.54A16.54,16.54,0,0,0,418.84,601.4Z"/>
    <polygon class="cls-4" points="380.22 608.56 360.94 581.19 341.7 608.56 351.35 608.56 351.35 629.8 370.31 629.8 370.31 608.56 380.22 608.56"/>
    <rect class="cls-12" x="302" y="292.15" width="200.64" height="143.63"/>
    <path class="cls-13" d="M462.21,380.73a16.57,16.57,0,0,0-16.57-16.57h0a17.19,17.19,0,0,0-2.68.21,22.38,22.38,0,0,0-19.7-11.75h-.82a25.74,25.74,0,0,0,.82-6.42,26.55,26.55,0,0,0-53.06-1.94c0,.64,0,1.29,0,1.94a27.82,27.82,0,0,0,.82,6.42h-.82a22.34,22.34,0,1,0,0,44.68h77.57A16.57,16.57,0,0,0,462.21,380.73Z"/>
    <polygon class="cls-4" points="385.03 390.28 404.3 417.64 423.54 390.28 413.89 390.28 413.89 369.04 394.97 369.04 394.97 390.28 385.03 390.28"/>
  </g>
</svg>
