<svg id="Ebene_1" data-name="Ebene 1" xmlns="http://www.w3.org/2000/svg" viewBox="0 0 1500 1000">
  <defs>
    <style>
      .cls-1 {
        fill: #041e42;
      }

      .cls-2, .cls-3 {
        fill: #e6e6e6;
      }

      .cls-13, .cls-14, .cls-15, .cls-2 {
        isolation: isolate;
      }

      .cls-2 {
        opacity: 0.3;
      }

      .cls-4 {
        fill: #24285b;
      }

      .cls-5 {
        opacity: 0.12;
      }

      .cls-6 {
        fill: #ccc;
      }

      .cls-7 {
        fill: #a8a8a8;
      }

      .cls-8 {
        fill: none;
        stroke: #fff;
        stroke-linecap: round;
        stroke-linejoin: round;
        stroke-width: 2.03px;
      }

      .cls-13, .cls-9 {
        fill: #fff;
      }

      .cls-10 {
        fill: #f4a28c;
      }

      .cls-11 {
        fill: #ffd200;
      }

      .cls-12 {
        fill: #ced9e7;
      }

      .cls-13 {
        opacity: 0.46;
      }

      .cls-14 {
        fill: #ce8172;
        opacity: 0.31;
      }

      .cls-15 {
        opacity: 0.08;
      }

      .cls-16 {
        fill: #999;
      }
    </style>
  </defs>
  <g>
    <rect class="cls-1" x="-391.5" y="-7692.5" width="9625" height="9685"/>
    <path d="M9233-7692V1992H-391V-7692H9233m1-1H-392V1993H9234V-7693Z"/>
  </g>
  <g>
    <path class="cls-2" d="M1131.09,141.84c136.2,46,265.91,172.48,269.74,335.82s-41.38,329.78-289.43,394.43c-233.17,60.7-786.75,83-934.11-120C38.12,560.78,82.47,250,325.67,150.48,496.15,80.74,865.06,51.92,1131.09,141.84Z"/>
    <rect class="cls-3" x="219.16" y="159.7" width="243.53" height="188.33"/>
    <rect class="cls-4" x="219.16" y="123.21" width="243.53" height="36.48"/>
    <g class="cls-5">
      <path d="M331.5,306.61a55.16,55.16,0,0,1-21.77-9.05c-2.16,2.24-4.32,4.44-6.4,6.73-1.06,1.18-1.79,1.06-2.85,0-3.46-3.55-7-7.06-10.6-10.52-1-1-.89-1.63,0-2.57,2.2-2.16,4.32-4.44,6.36-6.52-1.79-3.55-3.83-7.05-5.42-10.72a68.23,68.23,0,0,1-2.89-9.38c-.29-1.18-.74-1.51-1.84-1.46h-8.15c-1.31,0-1.71-.49-1.71-1.76V246.24c0-1.31.49-1.75,1.75-1.71h8.15c.53,0,1.39-.53,1.47-.94a55.39,55.39,0,0,1,8.84-20.38c-2.24-2.24-4.44-4.49-6.76-6.61-1-1-1-1.59,0-2.56,3.63-3.51,7.17-7.06,10.72-10.64,1-1,1.67-.94,2.61,0,2.08,2.28,4.07,4.48,6.44,6.76,1.63-1,3-1.87,4.44-2.69a51.23,51.23,0,0,1,16.23-6c1.18,0,1.63-.61,1.59-1.92v-7.9c0-1.27.4-1.76,1.75-1.76H348.7c1.43,0,1.84.57,1.84,1.88v9.33a55.68,55.68,0,0,1,21.81,9c2.2-2.28,4.36-4.48,6.48-6.76,1-1.1,1.71-1,2.73,0,3.47,3.54,7,7.09,10.6,10.51,1.1,1.06,1,1.71,0,2.69-2.2,2.12-4.32,4.32-6.6,6.61.57.89,1.22,1.87,1.79,2.85a49.78,49.78,0,0,1,6.73,16.88c.28,1.46.89,1.71,2.2,1.67h7.58c1.38,0,2,.41,2,1.87v14.76c0,1.47-.45,2-1.92,2h-8.15a1.87,1.87,0,0,0-1.39,1.06,54.74,54.74,0,0,1-8.76,20.38c2.2,2.2,4.32,4.44,6.56,6.56,1.1,1,1.22,1.71,0,2.81-3.59,3.43-7.09,7-10.6,10.48-.94,1-1.63,1.06-2.57,0-2.12-2.28-4.07-4.48-6.52-6.81a56.34,56.34,0,0,1-21.81,9V316c0,1.38-.37,2-1.87,2H333.66c-1.51,0-1.87-.61-1.83-1.95C331.54,312.81,331.5,309.79,331.5,306.61Zm9.54-84.1a31.39,31.39,0,1,0,31.55,31.43A31.39,31.39,0,0,0,341,222.51Z"/>
    </g>
    <rect class="cls-3" x="865.92" y="111.72" width="369.28" height="369.28"/>
    <rect class="cls-6" x="987.89" y="151.46" width="355.67" height="156.53"/>
    <path class="cls-3" d="M517.75,771.28h292A57.72,57.72,0,0,1,867.47,829h0a57.73,57.73,0,0,1-57.72,57.73h-292A57.73,57.73,0,0,1,460,829h0A57.72,57.72,0,0,1,517.75,771.28Z"/>
    <path class="cls-3" d="M713.26,643.16h292A57.72,57.72,0,0,1,1063,700.88h0a57.72,57.72,0,0,1-57.72,57.72h-292a57.72,57.72,0,0,1-57.72-57.72h0A57.72,57.72,0,0,1,713.26,643.16Z"/>
    <path class="cls-3" d="M908.76,515h292a57.72,57.72,0,0,1,57.72,57.72h0a57.72,57.72,0,0,1-57.72,57.72h-292A57.72,57.72,0,0,1,851,572.76h0A57.72,57.72,0,0,1,908.76,515Z"/>
    <rect class="cls-3" x="218.38" y="647.32" width="214.26" height="233.25"/>
    <rect class="cls-7" x="251.32" y="676.38" width="37.26" height="37.26"/>
    <polyline class="cls-8" points="262.16 695.38 267.5 703.37 277.16 688.98"/>
    <rect class="cls-9" x="308.88" y="688.57" width="86.3" height="14.8"/>
    <rect class="cls-7" x="251.32" y="744.09" width="37.26" height="37.26"/>
    <polyline class="cls-8" points="262.16 763.09 267.5 771.12 277.16 756.73"/>
    <rect class="cls-9" x="308.88" y="756.32" width="86.3" height="14.8"/>
    <rect class="cls-7" x="251.32" y="807.4" width="37.26" height="37.26"/>
    <polyline class="cls-8" points="262.16 826.39 267.5 834.42 277.16 820"/>
    <rect class="cls-9" x="308.88" y="819.59" width="86.3" height="14.8"/>
    <path class="cls-10" d="M982.75,215.42a95.57,95.57,0,0,0,15-10.56c2.53-3.22,6.77-20.38,10.15-23.88s10.23-3.27,11.09-.33a26.86,26.86,0,0,1,.29,8.15s3.79-4.6,4.07-2.53a52.09,52.09,0,0,1-10.56,24.83c-8.15,10.27-22,24.46-22,24.46Z"/>
    <rect class="cls-11" x="372.08" y="446.18" width="98.85" height="149.89" transform="translate(-209.21 747.92) rotate(-70.81)"/>
    <path class="cls-12" d="M714.6,229.32s192.74,32.25,273.57-20.38l12,18.91S967,278.48,872.61,300.7s-149.08,11.09-149.08,11.09Z"/>
    <path class="cls-13" d="M714.6,229.32s192.74,32.25,273.57-20.38l12,18.91S967,278.48,872.61,300.7s-149.08,11.09-149.08,11.09Z"/>
    <path class="cls-12" d="M537.57,731.25s-4.61,10.68,2,18,1.92,16.3-6.28,11.94S516.2,733,516.2,733l13-12.59Z"/>
    <path class="cls-12" d="M830.13,626.08s10,5.79,18.14,0,16.31,0,11.09,7.62-30,13.7-30,13.7l-11-14.35Z"/>
    <path class="cls-10" d="M706.17,145.35a124.55,124.55,0,0,1-9.3,31.79,10,10,0,0,1-13.51,4.11l-.06,0a22.14,22.14,0,0,1-13-20.38l-1.71-18.35a17.9,17.9,0,0,1,12.23-16.75C693.57,120.89,708.57,133.36,706.17,145.35Z"/>
    <polygon class="cls-10" points="668.95 146.04 643.88 206.41 678.16 217.83 682.6 169.32 668.95 146.04"/>
    <path class="cls-4" d="M701.07,145a81.21,81.21,0,0,1-17.53-5.67,16.61,16.61,0,0,1-4.28,17.74,13.58,13.58,0,0,1-17.16,1.42l6.36-24.82a20.39,20.39,0,0,1,14.27-15.21,68.52,68.52,0,0,1,9.29-2.08c7.83-1.14,17.2,6.16,24.79,2.86a4.8,4.8,0,0,1,6.31,2.52,4.91,4.91,0,0,1,.37,2.33c-.69,7.83-4.89,19.44-16.31,21.11A18.44,18.44,0,0,1,701.07,145Z"/>
    <path class="cls-10" d="M681.54,157s1.68-7.51-4.07-8.16-8.15,10.07-.82,12.88Z"/>
    <path class="cls-10" d="M703.64,157.58l3.63,8.76a3.19,3.19,0,0,1-1.71,4.16,3,3,0,0,1-1.39.24l-7.79-.4Z"/>
    <path class="cls-14" d="M682.07,180a23.68,23.68,0,0,1-9.53-9.5s-2.33,11.74,7.7,26.25Z"/>
    <path class="cls-12" d="M644,206.49l23.32,7.75A148.45,148.45,0,0,0,684.64,219c18.75,4.07,73.38,20.38,83.73,81.53,12.56,74.19-91.19,175-91.19,175L556.4,447S471.16,171.52,644,206.49Z"/>
    <path class="cls-4" d="M556.28,446.68S540,523.35,597.86,533.54s157.22-35,217.8,101.92L837,622.9s-14.15-125-146.75-161.18Z"/>
    <path class="cls-4" d="M575.35,480.1s75.38,117.73-53.64,229.51l16.06,21.64s138.92-63.63,125.43-241Z"/>
    <path class="cls-15" d="M644,273.51s.57,30.29-36.4,69.05S622.23,454,622.23,454l-65.79-7.33s-25.52-90.05-20.38-148.59,104.72-24.46,104.72-24.46Z"/>
    <path class="cls-12" d="M578.13,204.05c-72.69,4.36-225,37.13-160.13,241.28l32.17-2.85s-9.54-153.6,124.53-147.69a113.76,113.76,0,0,0,15,0c22.38-1.88,75.86-10.93,53.53-54.5A68.13,68.13,0,0,0,578.13,204.05Z"/>
    <path class="cls-13" d="M578.13,204.05c-72.69,4.36-225,37.13-160.13,241.28l32.17-2.85s-9.54-153.6,124.53-147.69a113.76,113.76,0,0,0,15,0c22.38-1.88,75.86-10.93,53.53-54.5A68.13,68.13,0,0,0,578.13,204.05Z"/>
    <path class="cls-10" d="M444.46,442.93a58.16,58.16,0,0,1,0,31.3c-5,14.56-15.65,18.1-25,13.17s8.89-29.51,8.89-29.51l-5.83-13.05Z"/>
    <path class="cls-16" d="M938.68,555.23h14a37.7,37.7,0,0,1,6.19.37,8.84,8.84,0,0,1,3.67,1.43,9.19,9.19,0,0,1,2.69,2.93,8.09,8.09,0,0,1,1.06,4.08,8.41,8.41,0,0,1-4.93,7.58,9,9,0,0,1,4.93,3.18,8.44,8.44,0,0,1,1.71,5.26,10.38,10.38,0,0,1-1.1,4.64,9.4,9.4,0,0,1-3,3.63,10.19,10.19,0,0,1-4.77,1.63c-1.18,0-4.08.25-8.52.25H938.68Zm7,5.91v8.16h9.78a4.84,4.84,0,0,0,2.85-1.27,3.69,3.69,0,0,0,1-2.73,3.62,3.62,0,0,0-3.54-3.87h-6Zm0,13.94v9.38h6.56a28.12,28.12,0,0,0,4.85-.25,4.38,4.38,0,0,0,2.57-1.38,4.3,4.3,0,0,0,1-3,4.53,4.53,0,0,0-.78-2.69,4.15,4.15,0,0,0-2.2-1.59,25,25,0,0,0-6.28-.49Z"/>
    <path class="cls-16" d="M973.91,555.23H981v19a43.73,43.73,0,0,0,.24,5.83,5.92,5.92,0,0,0,2.16,3.46,7.61,7.61,0,0,0,4.69,1.31,7.16,7.16,0,0,0,4.53-1.23,4.91,4.91,0,0,0,1.83-3.05,39,39,0,0,0,.33-5.91V555.23h7.05v18.39a46,46,0,0,1-.57,8.92,9.68,9.68,0,0,1-2.08,4.41,11.32,11.32,0,0,1-4.08,2.85,18.28,18.28,0,0,1-6.72,1.06,20.19,20.19,0,0,1-7.59-1.14,11,11,0,0,1-4.07-3,9.65,9.65,0,0,1-2-4.07,42.4,42.4,0,0,1-.69-8.85Z"/>
    <path class="cls-16" d="M1017.2,590.25V561.14h-10.4v-5.95h27.8v5.95h-10.35v29.07Z"/>
    <path class="cls-16" d="M1047.08,590.25V561.14h-10.4v-5.95h27.8v5.95h-10.35v29.07Z"/>
    <path class="cls-16" d="M1066.73,573a22.16,22.16,0,0,1,1.63-9,15.74,15.74,0,0,1,3.26-4.81,12.25,12.25,0,0,1,4.52-3.14,18.73,18.73,0,0,1,7.54-1.39,16.55,16.55,0,0,1,12.23,4.77,21.43,21.43,0,0,1,0,26.62,18.38,18.38,0,0,1-24.74,0A17.94,17.94,0,0,1,1066.73,573Zm7.29-.24a13.09,13.09,0,0,0,2.77,9,8.8,8.8,0,0,0,7,3.1,8.89,8.89,0,0,0,6.93-3.06,13.5,13.5,0,0,0,2.7-9.13,13.13,13.13,0,0,0-2.61-9,9.79,9.79,0,0,0-13.84-.23l-.23.23a13.2,13.2,0,0,0-2.69,9.05Z"/>
    <path class="cls-16" d="M1106.31,590.25v-35h6.85l14.34,23.4v-23.4h6.57v35H1127l-14.1-22.83v22.83Z"/>
    <path class="cls-16" d="M1170.84,590.25h-6.73V565a23.32,23.32,0,0,1-8.64,5.1V564a20,20,0,0,0,5.71-3.27,12.26,12.26,0,0,0,4.07-5.58h5.46Z"/>
    <path class="cls-16" d="M544.94,811.52h14a44.12,44.12,0,0,1,6.19.32,9.19,9.19,0,0,1,3.67,1.47,9.64,9.64,0,0,1,2.69,2.89,8.12,8.12,0,0,1,1.06,4.08,8.55,8.55,0,0,1-1.3,4.53,8.13,8.13,0,0,1-3.59,3.05,9.63,9.63,0,0,1,4.89,3.18,8.51,8.51,0,0,1,1.71,5.3,10.46,10.46,0,0,1-1.1,4.65,9.35,9.35,0,0,1-3,3.59,10.24,10.24,0,0,1-4.77,1.67c-1.15,0-4.08.2-8.52.24H544.94Zm7.06,5.83v8.15h9.78a4.5,4.5,0,0,0,2.85-1.22,4.09,4.09,0,0,0,0-5.39,3.81,3.81,0,0,0-2.65-1.22h-6Zm0,13.9v9.37h6.4a37.4,37.4,0,0,0,4.85-.2,4.08,4.08,0,0,0,3.54-4.36,4.43,4.43,0,0,0-.77-2.69,4.05,4.05,0,0,0-2.2-1.59,21.75,21.75,0,0,0-6.28-.53Z"/>
    <path class="cls-16" d="M580.2,811.52h7.06v19a34.89,34.89,0,0,0,.28,5.87,5.51,5.51,0,0,0,2.16,3.43,9.06,9.06,0,0,0,9.22,0,4.89,4.89,0,0,0,1.83-3,40.82,40.82,0,0,0,.29-6V811.43h7.09v18.39a49.45,49.45,0,0,1-.57,8.93,9.76,9.76,0,0,1-6.24,7.21,17.7,17.7,0,0,1-6.77,1.06,19.22,19.22,0,0,1-7.58-1.14,11.16,11.16,0,0,1-4.08-3,10,10,0,0,1-1.95-3.87,40.17,40.17,0,0,1-.69-8.89Z"/>
    <path class="cls-16" d="M623.62,846.49v-29.1h-10.4v-5.91h27.85v5.91h-10.4v29.1Z"/>
    <path class="cls-16" d="M653.34,846.49v-29.1h-10.4v-5.91h27.84v5.91H660.31v29.1Z"/>
    <path class="cls-16" d="M673,829.25a22.57,22.57,0,0,1,1.59-9,16,16,0,0,1,3.27-4.81,14.35,14.35,0,0,1,4.52-3.14,19.08,19.08,0,0,1,7.54-1.39,16.35,16.35,0,0,1,12.23,4.81,21.43,21.43,0,0,1,0,26.62,18.49,18.49,0,0,1-24.74,0A18,18,0,0,1,673,829.25Zm7.26-.25a13.06,13.06,0,0,0,2.77,9,9,9,0,0,0,7,3.06A8.84,8.84,0,0,0,697,838a13.32,13.32,0,0,0,2.73-9.13,13.11,13.11,0,0,0-2.65-9,9.73,9.73,0,0,0-13.77-.28l-.29.28A13.23,13.23,0,0,0,680.28,829Z"/>
    <path class="cls-16" d="M712.57,846.49v-35h6.89l14.3,23.35V811.48h6.57v35h-7.1l-14.1-22.83v22.83Z"/>
    <path class="cls-16" d="M782.6,840.3v6.19H759.08a16.23,16.23,0,0,1,2.28-6.72,46,46,0,0,1,7.54-8.4,52.88,52.88,0,0,0,5.59-5.71,7.65,7.65,0,0,0,1.38-4.08,4.07,4.07,0,0,0-3.42-4.63,4,4,0,0,0-1.14,0A4.54,4.54,0,0,0,768,818.2a6.57,6.57,0,0,0-1.42,4.08l-6.69-.65a11.22,11.22,0,0,1,3.75-8.16,12.75,12.75,0,0,1,7.87-2.4,11.28,11.28,0,0,1,8.15,2.81,9.09,9.09,0,0,1,3,6.93,12.36,12.36,0,0,1-.86,4.53,19.25,19.25,0,0,1-2.69,4.48,41.92,41.92,0,0,1-4.4,4.44,46.29,46.29,0,0,0-4.08,4.08,13.26,13.26,0,0,0-1.38,1.87Z"/>
    <path class="cls-16" d="M740.24,683.43h14a40,40,0,0,1,6.19.33,9.69,9.69,0,0,1,3.63,1.43,8.4,8.4,0,0,1,2.69,2.93,8.16,8.16,0,0,1-.24,8.6,8.07,8.07,0,0,1-3.59,3.1,9.35,9.35,0,0,1,4.93,3.18,8.51,8.51,0,0,1,1.71,5.3,10.61,10.61,0,0,1-4.15,8.24,10.05,10.05,0,0,1-4.73,1.67c-1.18,0-4.08,0-8.52.24h-12Zm7.1,5.83v8.16h9.74a4.51,4.51,0,0,0,2.85-1.27,3.65,3.65,0,0,0,1.06-2.73,4,4,0,0,0-.89-2.61,4.12,4.12,0,0,0-2.69-1.26h-6Zm0,13.9v9.38h6.72a35.68,35.68,0,0,0,4.85,0,4.45,4.45,0,0,0,2.57-1.43,4.29,4.29,0,0,0,.74-3.22,4.09,4.09,0,0,0-3-4.28,24.63,24.63,0,0,0-6.24-.49Z"/>
    <path class="cls-16" d="M775.51,683.43h7.09v19a40.52,40.52,0,0,0,.28,5.83,5.58,5.58,0,0,0,2.16,3.46,7.62,7.62,0,0,0,4.65,1.31,7.19,7.19,0,0,0,4.57-1.22,4.85,4.85,0,0,0,1.83-3,39.43,39.43,0,0,0,.33-6V683.43h7.05v18.39a49,49,0,0,1-.57,8.89,9.71,9.71,0,0,1-2.12,4.4A10.52,10.52,0,0,1,796.7,718,17.87,17.87,0,0,1,790,719a19.62,19.62,0,0,1-7.63-1.14,10.83,10.83,0,0,1-4.07-3,9.49,9.49,0,0,1-2-3.87,44.13,44.13,0,0,1-.69-8.89Z"/>
    <path class="cls-16" d="M818.76,718.41V689.3h-10.4v-5.87H836.2v5.92H825.85v29.1Z"/>
    <path class="cls-16" d="M848.64,718.41V689.3h-10.4v-5.87h27.84v5.92H855.73v29.1Z"/>
    <path class="cls-16" d="M868.2,701.09a22.37,22.37,0,0,1,1.59-9,16.76,16.76,0,0,1,3.26-4.81,13.81,13.81,0,0,1,4.53-3.14,19.08,19.08,0,0,1,7.54-1.39,16.35,16.35,0,0,1,12.23,4.81,18.16,18.16,0,1,1-24.7,26.62A18.14,18.14,0,0,1,868.2,701.09Zm7.3-.25a13.23,13.23,0,0,0,2.73,9,9,9,0,0,0,7,3.06,8.84,8.84,0,0,0,6.93-3.06,16.56,16.56,0,0,0,0-18.1,8.82,8.82,0,0,0-7-3,9,9,0,0,0-7,3,13.4,13.4,0,0,0-2.45,9Z"/>
    <path class="cls-16" d="M907.87,718.41v-35h6.89l14.35,23.36V683.43h6.56v35h-7.09l-14.15-22.79v22.87Z"/>
    <path class="cls-16" d="M955,709.12l6.52-.82a5.87,5.87,0,0,0,1.67,3.79,4.52,4.52,0,0,0,3.31,1.35,4.43,4.43,0,0,0,3.62-1.47,6,6,0,0,0,1.43-4.08,5.74,5.74,0,0,0-1.34-4.07,4.4,4.4,0,0,0-3.35-1.47,11.71,11.71,0,0,0-3.05.49l.73-5.46a5.81,5.81,0,0,0,4.08-1.19,4,4,0,0,0,1.42-3.34A3.64,3.64,0,0,0,969,690,3.76,3.76,0,0,0,966.2,689a4,4,0,0,0-2.93,1.22,5.63,5.63,0,0,0-1.51,3.47l-6.16-1.06a13.38,13.38,0,0,1,1.92-5.06,8.7,8.7,0,0,1,3.63-3,12,12,0,0,1,5.21-1.1,10.5,10.5,0,0,1,7.95,3.13,8.16,8.16,0,0,1-2.57,13.21,8.14,8.14,0,0,1,4.81,2.9,8.48,8.48,0,0,1,1.72,5.17,10.49,10.49,0,0,1-3.39,7.83,11.42,11.42,0,0,1-8.15,3.26,11.61,11.61,0,0,1-7.91-2.73A11,11,0,0,1,955,709.12Z"/>
    <rect class="cls-3" x="1031.83" y="188.8" width="72.76" height="72.76"/>
    <rect class="cls-3" x="1132.8" y="192.47" width="173.29" height="22.38"/>
    <rect class="cls-3" x="1132.8" y="235.64" width="143.12" height="22.38"/>
    <rect class="cls-3" x="932.08" y="847.47" width="337.24" height="19"/>
    <rect class="cls-6" x="1012.83" y="819.22" width="75.5" height="75.5"/>
    <rect class="cls-3" x="1074.02" y="757.83" width="217.84" height="12.27"/>
    <rect class="cls-6" x="1204.96" y="739.57" width="48.75" height="48.75"/>
  </g>
</svg>
