<svg id="Ebene_1" data-name="Ebene 1" xmlns="http://www.w3.org/2000/svg" viewBox="0 0 1500 1000">
  <defs>
    <style>
      .cls-1 {
        fill: #041e42;
      }

      .cls-13, .cls-2, .cls-4, .cls-5 {
        fill: #e6e6e6;
      }

      .cls-13, .cls-2, .cls-4, .cls-8, .cls-9 {
        isolation: isolate;
      }

      .cls-2 {
        opacity: 0.3;
      }

      .cls-3 {
        fill: none;
        stroke: #e6e6e6;
        stroke-linecap: round;
        stroke-linejoin: round;
        stroke-width: 3.04px;
      }

      .cls-4 {
        opacity: 0.45;
      }

      .cls-6 {
        fill: #ced9e7;
      }

      .cls-7 {
        fill: #f4a28c;
      }

      .cls-8 {
        opacity: 0.08;
      }

      .cls-14, .cls-9 {
        fill: #fff;
      }

      .cls-9 {
        opacity: 0.2;
      }

      .cls-10 {
        fill: #24285b;
      }

      .cls-11 {
        fill: #ffd200;
      }

      .cls-12 {
        fill: #c9c9c9;
      }

      .cls-13 {
        opacity: 0.49;
      }
    </style>
  </defs>
  <g>
    <rect class="cls-1" x="-5019.5" y="-5385.5" width="9625" height="9685"/>
    <path d="M4605-5385V4299H-5019V-5385H4605m1-1H-5020V4300H4606V-5386Z"/>
  </g>
  <g>
    <path class="cls-2" d="M390.22,259.29c-100.76,66-160.44,187.14-151,313.64,4.85,64.7,26.78,127.5,86.26,161.18,159.1,90.37,852.37,89.6,946.86-68.16,97.34-162.51,63.9-388.76-157.32-483.82C923.11,99.65,650.37,88.77,390.22,259.29Z"/>
    <polyline class="cls-3" points="347.2 763.13 347.2 713.42 424.19 713.42 424.19 763.13"/>
    <ellipse class="cls-4" cx="725.72" cy="912.35" rx="549.8" ry="52.49"/>
    <path class="cls-5" d="M358.15,436.13a21.62,21.62,0,0,0-21.63-21.63h0a21,21,0,0,0-3.35.3,29.22,29.22,0,0,0-25.7-15.36h-1.08a35,35,0,0,0,1.08-8.4,34.65,34.65,0,0,0-69.26-2.16q0,1.08,0,2.16a34.54,34.54,0,0,0,1.07,8.4h-1.07a29.19,29.19,0,1,0-2,58.34q1,0,2,0H339.34v-.2A21.61,21.61,0,0,0,358.15,436.13Z"/>
    <path class="cls-5" d="M1261.33,211.52a29.18,29.18,0,0,0-29.09-29.22,30.71,30.71,0,0,0-4.69.4A39.32,39.32,0,0,0,1192.91,162h-1.44a46.87,46.87,0,1,0-90.55,0h-1.44a39.36,39.36,0,0,0,0,78.69h136.57v-.26A29.17,29.17,0,0,0,1261.33,211.52Z"/>
    <polygon class="cls-6" points="632.06 436.53 707.27 342.8 723.51 357.03 659.41 464.21 632.06 436.53"/>
    <polygon class="cls-7" points="537.4 313.24 551.26 354.85 518.32 375.81 506.47 303.64 537.4 313.24"/>
    <path class="cls-7" d="M495.15,263.4A25.9,25.9,0,0,1,538,256.21c14,15,30.93,38.76,11.82,51.71-29.29,19.85-56.14-17.2-56.14-17.2A47.15,47.15,0,0,1,495.15,263.4Z"/>
    <path class="cls-7" d="M516.54,288.94s-7.49-6.29-10.88,2.61,9.85,13.39,13.8,8.74S516.54,288.94,516.54,288.94Z"/>
    <path class="cls-6" d="M479.86,396.22a84.09,84.09,0,0,1,52.78-46.12c44.79-13.39,127.2,1.27,152.34,43.15,34.41,57.34-16,239.46-16,239.46L518.59,644.4S435.84,495.11,479.86,396.22Z"/>
    <path class="cls-8" d="M545.7,346.32S475.4,573,678.52,588l-9.47,44.86L518.62,644.53s-53-83.25-50.78-200.17c0,0,1.27-57.81,42-83.35A91.58,91.58,0,0,1,545.7,346.32Z"/>
    <path class="cls-6" d="M607.06,348.93a75.86,75.86,0,0,0,0,80.33c16.4,27.69,64.13,81.61,96.77,117.16a34.49,34.49,0,0,0,55.53-6.49l70.29-123.59-23.8-15.26-64.26,94.19S697.47,350.73,607.06,348.93Z"/>
    <path class="cls-9" d="M607.06,348.93a75.86,75.86,0,0,0,0,80.33c16.4,27.69,64.13,81.61,96.77,117.16a34.49,34.49,0,0,0,55.53-6.49l70.29-123.59-23.8-15.26-64.26,94.19S697.47,350.73,607.06,348.93Z"/>
    <path class="cls-7" d="M821.19,411S861,396.39,844.62,373.9s-39.07,27.18-39.07,27.18Z"/>
    <path class="cls-10" d="M508.64,316.86,486.35,293.8a24.26,24.26,0,0,1-6.69-18.11c.53-11.75,3-30.46,12.75-44.52,15.26-22,35.55-30.36,40.6-11.32s6.06-3.58,18.35,6.7,9.77,16.07,0,21.42-30,13.12-31.77,29.22S533,306.15,508.64,316.86Z"/>
    <polygon class="cls-11" points="728.97 341.8 764.25 260.76 787.24 290.18 831.93 268.89 851.45 301.86 899.58 294.97 870.99 387.05 824.23 399.1 802.74 363.89 757.95 376.21 728.97 341.8"/>
    <polygon class="cls-9" points="766.49 280.81 740.95 337.58 762.3 364.26 808.37 348.93 827.18 389.53 862.79 379.42 885.82 306.68 844.48 313.78 827.18 280.81 785.34 302.1 766.49 280.81"/>
    <polygon class="cls-8" points="787.24 290.18 757.95 376.21 802.74 363.89 831.93 268.89 787.24 290.18"/>
    <polygon class="cls-8" points="851.45 301.86 824.23 399.1 870.99 387.05 899.58 294.97 851.45 301.86"/>
    <path class="cls-7" d="M710.05,345.28s4.46-20.29,13.39-25.51,27.28-1.1,19.45,10S723.44,357,723.44,357Z"/>
    <rect class="cls-12" x="266.3" y="742.84" width="236.39" height="174.97"/>
    <polygon class="cls-8" points="461.71 742.84 402.7 917.81 484.71 917.81 511.49 826.66 502.69 742.84 461.71 742.84"/>
    <polygon class="cls-10" points="668.48 632.35 648.46 893.94 616.8 893.94 588.58 690.69 518.62 644.16 668.48 632.35"/>
    <polygon class="cls-10" points="518.62 644.16 474.94 893.94 508.88 893.94 582.15 686.41 518.62 644.16"/>
    <path class="cls-6" d="M481.1,893.94l-21,15.5a4.62,4.62,0,0,0,2.75,8.33h35.25a4.59,4.59,0,0,0,4.62-4.55V893.94Z"/>
    <path class="cls-6" d="M647.56,893.94l19.81,15.5a4.65,4.65,0,0,1-2.87,8.33H639.39A13.39,13.39,0,0,1,626,904.38V893.94Z"/>
    <rect class="cls-11" x="1060.85" y="392.14" width="19.51" height="513.05"/>
    <rect class="cls-13" x="300.34" y="769.05" width="25.74" height="25.74"/>
    <polygon class="cls-13" points="342.68 790.88 365.04 776.25 365.04 803.86 342.68 790.88"/>
    <circle class="cls-13" cx="335.75" cy="830.31" r="24.27"/>
    <rect class="cls-10" x="981.79" y="469.13" width="115.88" height="41.64"/>
    <polygon class="cls-10" points="981.79 457.38 981.79 522.69 929.07 489.95 981.79 457.38"/>
    <rect class="cls-10" x="1044.45" y="371.25" width="115.88" height="41.64"/>
    <polygon class="cls-10" points="1160.34 359.47 1160.34 424.81 1213.06 392.07 1160.34 359.47"/>
    <path class="cls-5" d="M1062.13,903s31.86-45.83-15.64-58.45,11.45-74.34-32.8-82.44-36.82,57.17-36.82,57.17-30.53-26.31-51.58-4.22,8.43,46.36,8.43,46.36-42.54,14.7-16,41.58Z"/>
    <path class="cls-12" d="M998.26,909s20.08-34.61,50-30.36S1074.91,909,1074.91,909Z"/>
    <rect class="cls-14" x="1086.8" y="385.38" width="55.67" height="13.76"/>
    <rect class="cls-14" x="997.26" y="483.16" width="55.67" height="13.76"/>
  </g>
</svg>
