<svg id="Ebene_1" data-name="Ebene 1" xmlns="http://www.w3.org/2000/svg" viewBox="0 0 1500 1000">
  <defs>
    <style>
      .cls-1 {
        fill: #041e42;
      }

      .cls-2, .cls-7, .cls-8 {
        fill: #e6e6e6;
      }

      .cls-14, .cls-15, .cls-17, .cls-2, .cls-6, .cls-8 {
        isolation: isolate;
      }

      .cls-2 {
        opacity: 0.45;
      }

      .cls-3 {
        fill: #ffd200;
      }

      .cls-4 {
        fill: #f4a28c;
      }

      .cls-5 {
        fill: #24285b;
      }

      .cls-6 {
        opacity: 0.08;
      }

      .cls-8 {
        opacity: 0.43;
      }

      .cls-9 {
        fill: #c9c9c9;
      }

      .cls-10, .cls-17 {
        fill: #fff;
      }

      .cls-11 {
        fill: #f2f2f2;
      }

      .cls-12 {
        fill: #ced9e7;
      }

      .cls-13, .cls-14, .cls-15 {
        fill: #a5a5a5;
      }

      .cls-14 {
        opacity: 0.44;
      }

      .cls-15 {
        opacity: 0.13;
      }

      .cls-16 {
        fill: none;
        stroke: #fff;
        stroke-miterlimit: 10.15;
        stroke-width: 3.04px;
      }

      .cls-17 {
        opacity: 0.2;
      }
    </style>
  </defs>
  <g>
    <rect class="cls-1" x="-7294.5" y="-2999.5" width="9625" height="9685"/>
    <path d="M2330-2999V6685H-7294V-2999H2330m1-1H-7295V6686H2331V-3000Z"/>
  </g>
  <g>
    <ellipse class="cls-2" cx="750" cy="835.49" rx="525.82" ry="78.31"/>
    <rect class="cls-3" x="254.9" y="302.64" width="84.52" height="535.35" transform="translate(-4.57 2.4) rotate(-0.46)"/>
    <polygon class="cls-4" points="252.78 302.97 294.03 179.02 337.3 302.28 252.78 302.97"/>
    <polygon class="cls-5" points="275.28 235.35 313.7 235.06 294.03 179.02 275.28 235.35"/>
    <rect class="cls-6" x="255.13" y="302.8" width="43.72" height="535.35" transform="translate(-4.57 2.24) rotate(-0.46)"/>
    <rect class="cls-7" x="1023.18" y="780.97" width="157.66" height="41.51"/>
    <rect class="cls-8" x="988.73" y="740.37" width="157.66" height="41.51"/>
    <path class="cls-6" d="M255.16,575.79v53.57s45.93,5.14,84.51-19.89V561.33l-33.19-6.5Z"/>
    <rect class="cls-9" x="562.54" y="211.66" width="522.28" height="611.12"/>
    <rect class="cls-6" x="646.37" y="294.03" width="406.59" height="489.25"/>
    <rect class="cls-10" x="620.36" y="265.84" width="406.59" height="489.25"/>
    <path class="cls-6" d="M578.24,346s78.69,7.57,98.2,110l63.19-84.52s36.77-4.45,20.51,29.26c-10.66,22.17-13.26,86-41.28,129.21A737.8,737.8,0,0,0,609.54,812.31l-1.37,8.45L570,822.48,580.54,510.2Z"/>
    <rect class="cls-11" x="690.71" y="151" width="34.33" height="143.03"/>
    <rect class="cls-11" x="922.9" y="151" width="34.33" height="143.03"/>
    <rect class="cls-3" x="891.92" y="340.61" width="86.69" height="86.69"/>
    <rect class="cls-3" x="891.92" y="467.12" width="86.69" height="86.69"/>
    <rect class="cls-3" x="891.92" y="593.67" width="86.69" height="86.69"/>
    <path class="cls-12" d="M422.56,384.88c-23.11,50-92.18,147.52-158.92,158.76v35.05s119.56-6.21,224.78-111.31c43.79-43.81,43-74.08,27.27-94.49C490.7,340.61,439.66,347.86,422.56,384.88Z"/>
    <path class="cls-6" d="M422.56,384.88c-23.11,50-92.18,147.52-158.92,158.76v35.05s119.56-6.21,224.78-111.31c43.79-43.81,43-74.08,27.27-94.49C490.7,340.61,439.66,347.86,422.56,384.88Z"/>
    <rect class="cls-13" x="693.63" y="365.54" width="156.03" height="36.83"/>
    <rect class="cls-14" x="693.63" y="492.06" width="156.03" height="36.83"/>
    <rect class="cls-15" x="693.63" y="618.57" width="156.03" height="36.83"/>
    <polyline class="cls-16" points="911.43 383.94 928.75 406.18 958.01 365.54"/>
    <polyline class="cls-16" points="911.43 508.57 928.75 530.8 958.01 490.17"/>
    <polyline class="cls-16" points="911.43 633.2 928.75 655.43 958.01 614.8"/>
    <polygon class="cls-4" points="477.92 303.23 490.37 340.54 460.82 359.33 450.19 294.65 477.92 303.23"/>
    <path class="cls-4" d="M459.33,256.35a23.23,23.23,0,0,1,38.06,8.45c6.5,17.17,12.65,42.62-7.6,47-31,6.5-40.86-33.23-40.86-33.23A42.37,42.37,0,0,1,459.33,256.35Z"/>
    <path class="cls-4" d="M459.23,281.45s-6.73-5.63-9.75,2.37,8.81,11.83,12.35,7.8S459.23,281.45,459.23,281.45Z"/>
    <path class="cls-12" d="M426.33,377.63a75.6,75.6,0,0,1,47.37-41.34c40.14-12.06,114,1.13,136.52,38.68,30.85,51.39-14.3,214.54-14.3,214.54l-134.71,10.6S386.87,466.28,426.33,377.63Z"/>
    <polygon class="cls-5" points="595.95 589.64 578.2 821.51 550.15 821.51 525.12 641.36 463.1 600.11 595.95 589.64"/>
    <polygon class="cls-5" points="463.1 600.11 424.42 821.51 454.49 821.51 519.43 637.59 463.1 600.11"/>
    <path class="cls-6" d="M485.37,332.78S422.21,536,604.44,549.43L596,589.64,461.21,600.11s-52.66-91.8-45.51-179.44c0,0,1.14-51.85,37.61-74.76A82,82,0,0,1,485.37,332.78Z"/>
    <path class="cls-12" d="M431.47,821.05l-18.14,13.33a4,4,0,0,0,2.37,7.22h30.37a4,4,0,0,0,4-4V821.05Z"/>
    <path class="cls-12" d="M574.69,821.05l17.07,13.33a4,4,0,0,1-2.5,7.22H567.67a11.54,11.54,0,0,1-11.54-11.54h0v-9Z"/>
    <path class="cls-12" d="M540.37,335.21a68,68,0,0,0,0,71.94C555.06,432,597.74,480.39,627,512.28a30.83,30.83,0,0,0,49.89-5.89l62.87-110.78-21.32-13.68-57.6,84.51S621.4,336.84,540.37,335.21Z"/>
    <path class="cls-17" d="M540.37,335.21a68,68,0,0,0,0,71.94C555.06,432,597.74,480.39,627,512.28a30.83,30.83,0,0,0,49.89-5.89l62.87-110.78-21.32-13.68-57.6,84.51S621.4,336.84,540.37,335.21Z"/>
    <path class="cls-4" d="M732.32,390.9s35.75-13,21.13-33.29-35,24.38-35,24.38Z"/>
    <path class="cls-5" d="M452.53,305.31l-10.82-26.66a21.75,21.75,0,0,1,.46-17.36c4.38-9.55,12.77-24.28,25.58-32.5,20.09-13.2,39.75-13.26,37.54,4.26s6.24-.91,13,11.63,2.7,16.61-7.21,17.78-29.26.82-36.21,13.59S476.36,304.53,452.53,305.31Z"/>
    <path class="cls-4" d="M263.64,543.64S245,535.71,238,553s25.68,25.65,25.68,25.65Z"/>
    <rect class="cls-5" x="256.01" y="745.52" width="85.52" height="96.09" transform="translate(-6.36 2.42) rotate(-0.46)"/>
  </g>
</svg>
