<svg id="Ebene_1" data-name="Ebene 1" xmlns="http://www.w3.org/2000/svg" viewBox="0 0 1500 1000">
  <defs>
    <style>
      .cls-1 {
        fill: #041e42;
      }

      .cls-2 {
        fill: #e6e6e6;
        opacity: 0.45;
      }

      .cls-11, .cls-12, .cls-2, .cls-6, .cls-8, .cls-9 {
        isolation: isolate;
      }

      .cls-3 {
        fill: #f4a28c;
      }

      .cls-4 {
        fill: #24285b;
      }

      .cls-11, .cls-12, .cls-5 {
        fill: #ced9e7;
      }

      .cls-6 {
        fill: #ce8172;
        opacity: 0.31;
      }

      .cls-7 {
        fill: #ffd200;
      }

      .cls-8 {
        opacity: 0.08;
      }

      .cls-9 {
        fill: #fff;
        opacity: 0.46;
      }

      .cls-10 {
        fill: #c9c9c9;
      }

      .cls-11 {
        opacity: 0.58;
      }

      .cls-12 {
        opacity: 0.73;
      }
    </style>
  </defs>
  <g>
    <rect class="cls-1" x="-2674.5" y="-7676.5" width="9625" height="9685"/>
    <path d="M6950-7676V2008H-2674V-7676H6950m1-1H-2675V2009H6951V-7677Z"/>
  </g>
  <g>
    <ellipse class="cls-2" cx="750" cy="904.56" rx="441.08" ry="49.02"/>
    <path class="cls-3" d="M582.23,426.34c1.88,1.33,46.18,69.58,96,59.06s75.49-108.64,75.49-108.64Z"/>
    <path class="cls-4" d="M525.34,181.38s-21.89-18.46-39.13-5.61-5.68,65.45-43.08,53.27c0,0,40.61,33.81,69.29-21.41Z"/>
    <path class="cls-5" d="M507.88,217.26s-14.76-2.1-8.75-22.41,23-19.52,27.8-14.21Z"/>
    <path class="cls-3" d="M552.36,206.26a109.44,109.44,0,0,1-7,28.68,8.9,8.9,0,0,1-11.84,4.27l0,0a19.66,19.66,0,0,1-12.37-17.46l-2.28-16.25A15.94,15.94,0,0,1,529,190.09C540.18,184.89,554,195.55,552.36,206.26Z"/>
    <polygon class="cls-3" points="515.23 214.53 503.67 271.56 535.57 275.69 531.28 233.61 515.23 214.53"/>
    <path class="cls-3" d="M550.66,217.33l3.7,7.64a2.85,2.85,0,0,1-1.35,3.79,3,3,0,0,1-1.24.28h-6.9Z"/>
    <path class="cls-6" d="M531.4,234.79a21.4,21.4,0,0,1-9.75-6.31S518,240.7,532.72,246.94Z"/>
    <path class="cls-3" d="M516.41,214.82s1.18-6.75-4-7.38-6.86,9.27,0,11.52Z"/>
    <path class="cls-4" d="M548.86,204.75a50.86,50.86,0,0,1-16.91-2S526.12,222,509.8,224.94c0,0-11.41-30.94,8-40.2C534,177,546.2,170,557.42,182.52a13.33,13.33,0,0,1-8.56,22.23Z"/>
    <path class="cls-3" d="M531.06,213.13s0-7.94-6.27-7.39-7.38,9.71,0,14.21Z"/>
    <path class="cls-5" d="M503.67,271.56l31.9,4.13S708.14,358.53,609.39,475A66.06,66.06,0,0,0,594,509.32L585.07,581H455.43S268.2,313.42,503.67,271.56Z"/>
    <path class="cls-7" d="M728.92,207.63l93.36,234-248.1,43.78S531.17,284.74,728.92,207.63Z"/>
    <polygon class="cls-3" points="595.07 681.01 598.99 893.3 585.25 897.32 541.47 696.7 595.07 681.01"/>
    <path class="cls-8" d="M504.6,337.89s36.25,54.93-13.4,107.05-20.9,97.42,35.73,61.76,65.78,10.82,65.78,10.82l-3.36,29.16-88.15-1-97.67.37-34.37-81.47Z"/>
    <path class="cls-5" d="M598.65,890.2s8.35,9.82,18.46,8.93,12.18,13.51-4.28,12.63a88.6,88.6,0,0,1-15.21-2.07,27,27,0,0,0-13.81,1,4.41,4.41,0,0,1-4.76-1.7c-4.83-5.28,6.13-18.46,6.13-18.46Z"/>
    <polygon class="cls-3" points="418.07 680.57 403.53 892.41 417.04 897.1 470.82 698.91 418.07 680.57"/>
    <path class="cls-5" d="M404,889.31s-8.83,9.38-18.94,8-12.85,12.85,3.69,12.81a89.42,89.42,0,0,0,15.32-1.29,26.93,26.93,0,0,1,13.73,1.66,4.39,4.39,0,0,0,4.84-1.44c5.09-5-5.21-18.45-5.21-18.45Z"/>
    <polygon class="cls-4" points="589.35 546.57 625.49 764.73 531.06 764.73 491.2 764.73 376.91 767.24 426.75 546.57 589.35 546.57"/>
    <path class="cls-3" d="M504.6,337.89c2-38.28-42.42-61.05-73.46-38.57-41.94,30.49-101.44,82.17-85.2,216.09,19.71,162.61,223.62-5.94,223.62-5.94L561.11,488S449,558.16,419,514.16c-9.27-13.55,3.43-34,13-50.24C449.15,434.61,502.16,384.63,504.6,337.89Z"/>
    <path class="cls-3" d="M561.11,488s8.38-21.92,22.45-17.09,3.87,34-14,35.66Z"/>
    <path class="cls-5" d="M491.2,274.07s-4.43-13.73,21-16.61S558,265.4,549.59,283.3C549.59,283.37,530.44,298.65,491.2,274.07Z"/>
    <path class="cls-9" d="M491.2,274.07s-4.43-13.73,21-16.61S558,265.4,549.59,283.3C549.59,283.37,530.44,298.65,491.2,274.07Z"/>
    <rect class="cls-4" x="554.32" y="486.6" width="16.91" height="32.12" transform="translate(-190.9 465.79) rotate(-38.97)"/>
    <path class="cls-5" d="M1106.44,529.15a204.69,204.69,0,0,1-91.1,170.46.76.76,0,0,1-.3.23A204.11,204.11,0,0,1,901.35,734.2c-3.69,0-7.05,0-10.52-.26l-3.21-.22A203.64,203.64,0,0,1,767.2,684.18l-.37-.29A204.24,204.24,0,0,1,696.7,542c-.34-4.28-.45-8.56-.45-12.88a207.32,207.32,0,0,1,4.17-41.35v-.44l200.93,41.83V324.09c113.25,0,205.07,91.77,205.09,205Z"/>
    <path class="cls-4" d="M1015.34,699.65a.73.73,0,0,1-.3.22A201.29,201.29,0,0,1,890.83,734l-3.21-.22a213.88,213.88,0,0,1-98.31-34,251.49,251.49,0,0,1-22.14-15.47h0l-.37-.29a195.63,195.63,0,0,1-70.14-141.9,231.87,231.87,0,0,1,3.69-54.22v-.45l201,41.72Z"/>
    <rect class="cls-7" x="980.93" y="398.4" width="179.99" height="114.69"/>
    <rect class="cls-4" x="1016.44" y="465.47" width="24.4" height="24.4"/>
    <rect class="cls-4" x="1057.6" y="439.26" width="24.4" height="50.65"/>
    <rect class="cls-4" x="1101.01" y="421.61" width="24.4" height="68.29"/>
    <path class="cls-3" d="M795.85,333.06a15.21,15.21,0,0,0-6.09-9.45,31.38,31.38,0,0,0-19.31-1.88c-6.13,1.66-6.94,6.35-6.87,12.55s.45,13.21,5,17.46a14.76,14.76,0,0,0,16.94,3.39A19,19,0,0,0,795.85,333.06Z"/>
    <path class="cls-10" d="M881.52,659.82a47.36,47.36,0,1,0-72.13-6.16l-7,7-2.51-2.51-62.75,62.75,16.35,16.32,62.75-62.75L813.71,672l7-7A47.31,47.31,0,0,0,881.52,659.82Zm-54.3-54.3a29.53,29.53,0,1,1,.09,41.76l-.09-.08a29.54,29.54,0,0,1,0-41.68Z"/>
    <path class="cls-11" d="M1049.48,861.37s-31.82-8.67-38.72-38.32c0,0,49.28-10,50.72,40.94Z"/>
    <path class="cls-12" d="M1053.4,858.16s-22.15-35.18-2.66-68c0,0,37.5,23.81,20.82,68.1Z"/>
    <path class="cls-5" d="M1059.12,858.16s11.77-36.92,47.28-44.3c0,0,6.65,24.11-23,44.3Z"/>
    <polygon class="cls-4" points="1036.05 857.35 1042.51 901.5 1083.15 901.64 1089.13 857.57 1036.05 857.35"/>
  </g>
</svg>
