<svg id="Ebene_1" data-name="Ebene 1" xmlns="http://www.w3.org/2000/svg" viewBox="0 0 1500 1000">
  <defs>
    <style>
      .cls-1 {
        fill: #041e42;
      }

      .cls-10, .cls-2 {
        fill: #e6e6e6;
      }

      .cls-3 {
        fill: #a8a8a8;
      }

      .cls-16, .cls-17, .cls-4 {
        fill: none;
        stroke-linecap: round;
        stroke-width: 2.03px;
      }

      .cls-17, .cls-4 {
        stroke: #fff;
      }

      .cls-16, .cls-4 {
        stroke-linejoin: round;
      }

      .cls-12, .cls-5 {
        fill: #fff;
      }

      .cls-10, .cls-11, .cls-12, .cls-13, .cls-14, .cls-19, .cls-6 {
        isolation: isolate;
      }

      .cls-6 {
        opacity: 0.08;
      }

      .cls-13, .cls-14, .cls-7 {
        fill: #ced9e7;
      }

      .cls-8 {
        fill: #24285b;
      }

      .cls-9 {
        fill: #f4a28c;
      }

      .cls-10 {
        opacity: 0.45;
      }

      .cls-11 {
        fill: #ce8172;
        opacity: 0.31;
      }

      .cls-12 {
        opacity: 0.46;
      }

      .cls-13 {
        opacity: 0.58;
      }

      .cls-14 {
        opacity: 0.73;
      }

      .cls-15 {
        fill: #ffd200;
      }

      .cls-16 {
        stroke: #c1c1c1;
      }

      .cls-17 {
        stroke-linejoin: bevel;
      }

      .cls-18 {
        fill: #c1c1c1;
      }
    </style>
  </defs>
  <g>
    <rect class="cls-1" x="-5015.5" y="-1654.5" width="9625" height="9685"/>
    <path d="M4609-1654V8030H-5015V-1654H4609m1-1H-5016V8031H4610V-1655Z"/>
  </g>
  <g>
    <rect class="cls-2" x="706.04" y="120" width="633.96" height="307.94"/>
    <rect class="cls-3" x="748.82" y="158.32" width="48.35" height="49.19"/>
    <polyline class="cls-4" points="762.88 183.41 769.75 193.99 782.31 175"/>
    <rect class="cls-5" x="823.44" y="174.44" width="431.56" height="19.55"/>
    <rect class="cls-3" x="748.82" y="247.76" width="48.35" height="49.19"/>
    <polyline class="cls-4" points="762.88 272.85 769.75 283.43 782.31 264.44"/>
    <rect class="cls-5" x="823.44" y="263.88" width="431.56" height="19.55"/>
    <rect class="cls-3" x="748.82" y="331.31" width="48.35" height="49.19"/>
    <polyline class="cls-4" points="762.88 356.37 769.75 366.99 782.31 347.96"/>
    <rect class="cls-5" x="823.44" y="347.4" width="431.56" height="19.55"/>
    <rect class="cls-2" x="706.04" y="598.85" width="625.96" height="192.25"/>
    <path class="cls-6" d="M706,272.33s99.87,70.75,102,155.57H748.82Z"/>
    <path class="cls-7" d="M546.1,278.18l-90.76,73.43s-85.13,86.87-31.69,143.73,131.27-26.25,131.27-26.25Z"/>
    <path class="cls-6" d="M546.1,278.18l-90.76,73.43s-85.13,86.87-31.69,143.73,131.27-26.25,131.27-26.25Z"/>
    <polygon class="cls-8" points="438.48 311.64 446.71 305.06 488.57 359.25 480.34 365.83 438.48 311.64"/>
    <path class="cls-9" d="M455.34,351.61s14.13-17,26.83-11.4,9.33,31.28-12.78,31.73S455.34,351.61,455.34,351.61Z"/>
    <ellipse class="cls-10" cx="505.85" cy="885.54" rx="49.45" ry="276.46" transform="translate(-381.84 1387.6) rotate(-89.76)"/>
    <path class="cls-7" d="M543.58,864.12s-5.67,10.91-16,10.32-14.64,9.16-5.64,13.14S556.13,883,556.13,883L558,863.83Z"/>
    <path class="cls-9" d="M588.85,164.42s-1.94,21.93,1.65,36.53a11,11,0,0,0,13.25,8,24.22,24.22,0,0,0,18.92-18.36l6.51-19.21a19.89,19.89,0,0,0-8.49-21.12C608.39,141.41,589.36,151,588.85,164.42Z"/>
    <polygon class="cls-9" points="627.9 174.89 638.88 246.16 599.83 249.51 607.55 196.3 627.9 174.89"/>
    <path class="cls-9" d="M611.69,183.34s.18-8.49,6.44-7.82,6.07,12.92-2.45,14Z"/>
    <path class="cls-9" d="M588.34,178.31l-5.93,8.45a3.77,3.77,0,0,0,1.19,5.13,3.48,3.48,0,0,0,1,.42l8.27,1.6Z"/>
    <path class="cls-11" d="M605.36,207.88a25.63,25.63,0,0,0,12.7-7.67s-.59,13.22-14.86,26.06Z"/>
    <path class="cls-7" d="M644.63,246.19,596,250.36s-96.25,28.82-92.37,121,12.63,205,12.63,205l129.55,17.24S861.25,295.27,644.63,246.19Z"/>
    <path class="cls-6" d="M665.16,305.25s-45.79,23-42.49,79-5.89,76.11-62.69,69.63-50.8,18.62-50.8,18.62l7.32,103.77,129.55,17.24,11.68-17.24S761.37,383,665.16,305.25Z"/>
    <path class="cls-8" d="M516.28,576.29l-34.81,29.45c-32,27.1-36.31,75.45-9.68,108a75.84,75.84,0,0,0,20.92,17.73l66.72,38.24,22.17-16.42-49.92-42.15a27.21,27.21,0,0,1-3.44-37.86,26.38,26.38,0,0,1,6.34-5.63l17.78-11.17a79.71,79.71,0,0,1,32.54-11.88c19.25-2.49,51.24-12.47,60.93-50.94Z"/>
    <path class="cls-8" d="M588.34,136.2s-12.26,30.49,11.49,33,8.75,19,22.73,21.45,30-32.14,16.32-49.45S595.15,122.2,588.34,136.2Z"/>
    <path class="cls-8" d="M645.83,593.53,558,863.83l-22-.23s30-180.37,26.72-256.14Z"/>
    <path class="cls-7" d="M649.53,323.27c-2.3-20,11.75-38.07,31.38-40.41a35.42,35.42,0,0,1,28.9,9.84c25.14,24.13,51.71,63,58.55,122.36C782.49,535.29,740.92,653.55,558,462.5l18.59-21.94s90.87,63.86,117.77,52.92C715,485.14,657.8,398.71,649.53,323.27Z"/>
    <path class="cls-12" d="M649.53,323.27c-2.3-20,11.75-38.07,31.38-40.41a35.42,35.42,0,0,1,28.9,9.84c25.14,24.13,51.71,63,58.55,122.36C782.49,535.29,740.92,653.55,558,462.5l18.59-21.94s90.87,63.86,117.77,52.92C715,485.14,657.8,398.71,649.53,323.27Z"/>
    <path class="cls-13" d="M396.93,845.88s31.66-8.68,38.65-38.58c0,0-48.93-10.28-50.54,41Z"/>
    <path class="cls-14" d="M393.09,842.68s22.21-35.45,2.93-68.74c0,0-37.37,23.9-21,68.74Z"/>
    <path class="cls-7" d="M387.38,842.68S375.85,805.1,340.61,798c0,0-6.7,24.32,22.65,44.69Z"/>
    <polygon class="cls-8" points="410.29 841.93 403.74 886.5 363.37 886.5 357.59 841.93 410.29 841.93"/>
    <polygon class="cls-15" points="455.28 360.95 551.58 348.56 569.36 491.56 473.06 503.95 455.28 360.95"/>
    <path class="cls-9" d="M563,456.84s-37.63-18.62-28.48-32.4,42.27,16.12,42.27,16.12Z"/>
    <ellipse class="cls-2" cx="281.32" cy="207.95" rx="73.45" ry="74.73"/>
    <ellipse class="cls-5" cx="281.32" cy="207.95" rx="51.93" ry="52.84"/>
    <polyline class="cls-16" points="281.32 177.6 281.32 213.09 309.94 208.92"/>
    <ellipse class="cls-2" cx="281.32" cy="410.33" rx="73.45" ry="74.73"/>
    <ellipse class="cls-5" cx="281.32" cy="410.33" rx="51.93" ry="52.84"/>
    <polyline class="cls-16" points="281.32 379.98 281.32 415.47 309.94 411.26"/>
    <ellipse class="cls-6" cx="743.04" cy="642.05" rx="11.6" ry="11.8"/>
    <ellipse class="cls-6" cx="743.04" cy="692.84" rx="11.6" ry="11.8"/>
    <ellipse class="cls-6" cx="743.04" cy="743.63" rx="11.6" ry="11.8"/>
    <line class="cls-17" x1="785.93" y1="642.05" x2="1251" y2="642.05"/>
    <line class="cls-17" x1="785.93" y1="692.84" x2="1251" y2="692.84"/>
    <line class="cls-17" x1="785.93" y1="743.63" x2="1251" y2="743.63"/>
    <rect class="cls-2" x="215.88" y="586.68" width="130.84" height="105.34"/>
    <rect class="cls-18" x="215.88" y="566.87" width="130.84" height="34.82"/>
    <rect class="cls-2" x="235.06" y="548.77" width="11.16" height="28.86"/>
    <rect class="cls-2" x="316.01" y="548.47" width="11.16" height="28.86"/>
    <g class="cls-19">
      <path class="cls-5" d="M250,655.77l7.54-.93a7.27,7.27,0,0,0,1.94,4.48,5.42,5.42,0,0,0,7.88-.31,7.27,7.27,0,0,0,1.64-5,6.81,6.81,0,0,0-1.57-4.74,5,5,0,0,0-3.85-1.75,13.26,13.26,0,0,0-3.58.6l.86-6.46a6.75,6.75,0,0,0,4.82-1.39,5,5,0,0,0,1.66-3.93,4.53,4.53,0,0,0-1.22-3.33,4.32,4.32,0,0,0-3.24-1.24,4.63,4.63,0,0,0-3.4,1.41,6.61,6.61,0,0,0-1.72,4.11L250.62,636a16.49,16.49,0,0,1,2.25-6,10.32,10.32,0,0,1,4.21-3.52,14,14,0,0,1,6.05-1.28,12,12,0,0,1,9.2,3.72,9.8,9.8,0,0,1,2.85,6.88q0,5.43-5.84,8.68a9.35,9.35,0,0,1,5.58,3.41,10,10,0,0,1,2.09,6.39,12.54,12.54,0,0,1-3.9,9.28,14.4,14.4,0,0,1-18.87.6A12.75,12.75,0,0,1,250,655.77Z"/>
      <path class="cls-5" d="M295,625.25a11,11,0,0,1,9.22,4.28q4,5.09,4,16.83t-4,16.85a11,11,0,0,1-9.19,4.23,11.55,11.55,0,0,1-9.56-4.64q-3.63-4.63-3.63-16.53,0-11.65,4-16.79A11,11,0,0,1,295,625.25Zm0,6.57a3.81,3.81,0,0,0-2.52.91,6.14,6.14,0,0,0-1.72,3.29,45.59,45.59,0,0,0-.81,10.34q0,7.27.73,10a7,7,0,0,0,1.81,3.62,3.95,3.95,0,0,0,5,0,6.21,6.21,0,0,0,1.71-3.29,45.22,45.22,0,0,0,.81-10.31q0-7.27-.72-10a7.14,7.14,0,0,0-1.82-3.64A3.78,3.78,0,0,0,295,631.82Z"/>
    </g>
  </g>
</svg>
