<svg id="Ebene_1" data-name="Ebene 1" xmlns="http://www.w3.org/2000/svg" viewBox="0 0 1500 1000">
  <defs>
    <style>
      .cls-1 {
        fill: #041e42;
      }

      .cls-2 {
        fill: #ced9e7;
      }
    </style>
  </defs>
  <g>
    <rect class="cls-1" x="-5015.5" y="-218.5" width="9625" height="9685"/>
    <path d="M4609-218V9466H-5015V-218H4609m1-1H-5016V9467H4610V-219Z"/>
  </g>
  <path class="cls-2" d="M1098.35,467.76,782.24,151.66a46.64,46.64,0,0,0-66,0L650.66,217.3l83.26,83.27A55.37,55.37,0,0,1,804,371.16l80.26,80.25a55.42,55.42,0,1,1-33.23,31.28l-74.85-74.84V604.8a56.11,56.11,0,0,1,14.67,10.5,55.45,55.45,0,1,1-60.28-12.11V404.41a55.5,55.5,0,0,1-30.12-72.76l-82.09-82.1L401.65,466.29a46.65,46.65,0,0,0,0,66l316.12,316.1a46.65,46.65,0,0,0,66,0l314.63-314.64A46.64,46.64,0,0,0,1098.35,467.76Z"/>
</svg>
