<svg id="Ebene_1" data-name="Ebene 1" xmlns="http://www.w3.org/2000/svg" viewBox="0 0 1500 1000">
  <defs>
    <style>
      .cls-1 {
        fill: #041e42;
      }

      .cls-2, .cls-3 {
        fill: #e6e6e6;
      }

      .cls-11, .cls-14, .cls-15, .cls-16, .cls-2, .cls-7, .cls-8 {
        isolation: isolate;
      }

      .cls-2 {
        opacity: 0.45;
      }

      .cls-4 {
        fill: #24285b;
      }

      .cls-14, .cls-15, .cls-5 {
        fill: #ced9e7;
      }

      .cls-6 {
        fill: #ffd200;
      }

      .cls-7 {
        opacity: 0.08;
      }

      .cls-11, .cls-12, .cls-8 {
        fill: #fff;
      }

      .cls-8 {
        opacity: 0.2;
      }

      .cls-9 {
        fill: #f4a28c;
      }

      .cls-10 {
        fill: #f2f2f2;
      }

      .cls-11, .cls-14 {
        opacity: 0.58;
      }

      .cls-13 {
        fill: none;
        stroke: #a5a5a5;
        stroke-linecap: round;
        stroke-linejoin: round;
        stroke-width: 2.03px;
      }

      .cls-15 {
        opacity: 0.73;
      }

      .cls-16 {
        fill: #cecece;
        opacity: 0.63;
      }

      .cls-17 {
        fill: #a5a5a5;
      }
    </style>
  </defs>
  <g>
    <rect class="cls-1" x="-407.5" y="-218.5" width="5067" height="4126"/>
    <path d="M4659-218V3907H-407V-218H4659m1-1H-408V3908H4660V-219Z"/>
  </g>
  <ellipse class="cls-2" cx="290.35" cy="987.37" rx="235.67" ry="44.63"/>
  <rect class="cls-3" x="301.86" y="238.36" width="868.94" height="570.98"/>
  <circle class="cls-4" cx="343.88" cy="276.26" r="14.21"/>
  <circle class="cls-5" cx="386.1" cy="276.26" r="14.21"/>
  <circle class="cls-6" cx="425.91" cy="276.26" r="14.21"/>
  <path class="cls-7" d="M1030,238.36l-204.66.83-32.75,46.08L484,568.65l25.35,49.24-86.64,34.16H338.27L327.09,809.34h98.74l14-91.84c82.65-11,137.13-86.77,137.13-86.77h0L937,476.77,891.26,371.46l60.79-29.09,3.37,19.08s32.87-9.06,31.5-39.69S982.68,253.11,1030,238.36Z"/>
  <path class="cls-5" d="M861.09,122.29c-5,40.27-25.81,123.46-111.13,160.53l12.47,20.78s118.73-37.4,147.36-133c12.84-43,4.65-61.67-8.31-69.23a27.33,27.33,0,0,0-40.39,20.9Z"/>
  <path class="cls-8" d="M861.09,122.29c-5,40.27-25.81,123.46-111.13,160.53l12.47,20.78s118.73-37.4,147.36-133c12.84-43,4.65-61.67-8.31-69.23a27.33,27.33,0,0,0-40.39,20.9Z"/>
  <polygon class="cls-9" points="871.97 58.63 892.38 83.52 910.33 64.24 878.12 35.65 871.97 58.63"/>
  <path class="cls-9" d="M857.6,12.91a19,19,0,0,0-21.24,23.77c3.78,14.55,11.93,34.37,27.47,27.56,23.73-10.39,11.26-41.56,11.26-41.56A34.7,34.7,0,0,0,857.6,12.91Z"/>
  <path class="cls-4" d="M889.14,207.77l-40.48,20.78a29.09,29.09,0,0,0-12.38,39.23c.16.31.33.61.5.91l36.36,63,17.7-12.47-20.78-57.43a7.19,7.19,0,0,1,4.25-9.23,5.81,5.81,0,0,1,.78-.24l40.35-9.85-7.19,19.12A40,40,0,0,0,912.41,298l37.4,55.77L964,345.12,946,295.7a31.6,31.6,0,0,1,6.35-32.12l19.49-21.36Z"/>
  <rect class="cls-10" x="1038.16" y="715.01" width="243.1" height="153.76"/>
  <rect class="cls-7" x="999.26" y="715.01" width="39.52" height="94.33"/>
  <path class="cls-4" d="M827.3,18.19s-6.56,21.11,16.29,15.92S864.7,21.64,864.7,21.64s1.75,24.93,13.18,19.41,4.86-19.12,0-28.43S870.15.53,857.1-.84,828.92,5.39,827.3,18.19Z"/>
  <path class="cls-9" d="M865.08,36.19s-1-7.11,5.9-5.74,4.15,11.26,0,12S865.08,36.19,865.08,36.19Z"/>
  <polygon class="cls-9" points="262.63 576.46 272.81 607 248.67 622.34 239.94 569.39 262.63 576.46"/>
  <path class="cls-9" d="M231.67,539.89a19,19,0,0,1,31.46-5.28c10.27,11,22.65,28.47,8.65,37.94-21.49,14.55-41.19-12.46-41.19-12.46A34.8,34.8,0,0,1,231.67,539.89Z"/>
  <path class="cls-9" d="M247.38,558.63s-5.52-4.61-8,1.91,7.23,9.73,10.14,6.4S247.38,558.63,247.38,558.63Z"/>
  <path class="cls-5" d="M888.06,78.24l22.27-14s72.35-24.73,95.21-2,24.47,108.5-33.71,180l-82.69-34.45s1.66-41.14-12.1-51.53S846.38,114.69,888.06,78.24Z"/>
  <path class="cls-5" d="M877.29,328.53s-4.53,21,3.58,20.28,10-29.83,10-29.83Z"/>
  <path class="cls-5" d="M950.22,352.84s-4.52,21,3.58,20.28,9.93-29.83,9.93-29.83Z"/>
  <path class="cls-9" d="M1065,227.84s-14,6-8.81,12.93,22.82-2.41,22.82-2.41l1.08-10.52Z"/>
  <path class="cls-9" d="M751.67,285.27s-22.94,1.87-18.12,7.15a24.57,24.57,0,0,0,8.73,6.69s-16.63,18.58-4.53,22.28,23.89-19.45,23.89-19.45Z"/>
  <rect class="cls-6" x="410.03" y="359.85" width="446.32" height="177.01" transform="translate(-129.61 306.61) rotate(-24.78)"/>
  <rect class="cls-11" x="567.22" y="384.08" width="214.02" height="29.09" transform="translate(-104.86 317.94) rotate(-24.68)"/>
  <rect class="cls-11" x="592.37" y="438.85" width="214.02" height="29.09" transform="translate(-125.43 333.44) rotate(-24.68)"/>
  <circle class="cls-12" cx="513.26" cy="507.52" r="46.21"/>
  <polyline class="cls-13" points="1120.81 762.09 1088.4 793.59 1120.81 825.13"/>
  <polyline class="cls-13" points="1190.92 762.09 1223.33 793.59 1190.92 825.13"/>
  <path class="cls-14" d="M719.55,188S679.61,177.27,671,140.2c0,0,61.71-12.76,63.75,51Z"/>
  <path class="cls-15" d="M724.41,184s-28-43.92-3.7-85.19c0,0,47.08,29.63,26.47,85.19Z"/>
  <path class="cls-5" d="M731.6,184s14.5-46.54,59-55.56c0,0,8.31,30.17-28.6,55.56Z"/>
  <line class="cls-13" x1="1168.48" y1="762.09" x2="1137.39" y2="825.13"/>
  <rect class="cls-16" x="358.05" y="338.59" width="121.8" height="22.86"/>
  <path class="cls-5" d="M243.27,616.31s-71.35,43.22-80.7,144.62a35.15,35.15,0,0,0,26.63,37.4l83.61,20.57Z"/>
  <path class="cls-8" d="M243.27,616.31s-71.35,43.22-80.7,144.62a35.15,35.15,0,0,0,26.63,37.4l83.61,20.57Z"/>
  <polygon class="cls-4" points="702.67 183.09 710.99 238.36 761.89 238.36 769.16 183.09 702.67 183.09"/>
  <path class="cls-4" d="M250.42,550.69s11.38,32.67-8.52,30.63-9-16.08-18.87-30.63-4.65-24.35,10.39-37.11c6.94-5.85,11.59-8.56,14.34-11.67a10.67,10.67,0,0,1,15.05-1.27,10.9,10.9,0,0,1,2.86,3.8C270.82,517,270.86,533.78,250.42,550.69Z"/>
  <rect class="cls-7" x="988.21" y="389.29" width="182.6" height="287.11"/>
  <rect class="cls-6" x="130.91" y="746.72" width="142.28" height="101.99" transform="translate(-192.7 75.67) rotate(-14.45)"/>
  <polygon class="cls-7" points="201.79 743.47 217.59 809.34 213.47 845.62 250.42 836.06 261.43 806.64 225.94 737.2 201.79 743.47"/>
  <path class="cls-5" d="M226.77,637.55a57.31,57.31,0,0,1,36-31.42c30.5-9.18,88.43-28.38,105.55,0,23.44,39.06-12.46,192.45-12.46,192.45l-102.52,7.94S196.81,705,226.77,637.55Z"/>
  <polygon class="cls-4" points="355.72 798.7 342.21 974.94 320.9 974.94 301.86 838.01 254.74 806.64 355.72 798.7"/>
  <polygon class="cls-4" points="254.74 806.64 225.32 974.94 248.17 974.94 297.54 835.15 254.74 806.64"/>
  <path class="cls-5" d="M307.14,629.61a29.09,29.09,0,0,1,27.26-37.94c13.05-.42,28.05,1.83,39.56,11.14,25.64,20.77,109.71,34.9,185.59-34.54l14.59,22.4S488,702.87,353,670.63a63.18,63.18,0,0,1-45.3-39.73C307.47,630.48,307.31,630,307.14,629.61Z"/>
  <path class="cls-8" d="M307.14,629.61a29.09,29.09,0,0,1,27.26-37.94c13.05-.42,28.05,1.83,39.56,11.14,25.64,20.77,109.71,34.9,185.59-34.54l14.59,22.4S488,702.87,353,670.63a63.18,63.18,0,0,1-45.3-39.73C307.47,630.48,307.31,630,307.14,629.61Z"/>
  <path class="cls-7" d="M271.65,603.43S223.7,757.89,362.16,768.12l-6.44,30.58L253.2,806.64a266.05,266.05,0,0,1-34.62-136.39s.88-39.39,28.64-56.81A62.82,62.82,0,0,1,271.65,603.43Z"/>
  <path class="cls-5" d="M229.47,974.94,215.3,985.37a3.12,3.12,0,0,0,1.83,5.66H240.9a3.18,3.18,0,0,0,3.12-3.12v-13Z"/>
  <path class="cls-5" d="M341.63,974.94,355,985.37a3.16,3.16,0,0,1-2,5.66H336.11a9.07,9.07,0,0,1-9-9.06v-7Z"/>
  <rect class="cls-10" x="1029.97" y="333.4" width="301.82" height="309.93"/>
  <rect class="cls-17" x="1084.49" y="409.86" width="185.96" height="11.14"/>
  <rect class="cls-17" x="1084.49" y="480.21" width="185.96" height="11.14"/>
  <rect class="cls-17" x="1084.49" y="550.57" width="185.96" height="11.14"/>
  <rect class="cls-4" x="1244.49" y="389.29" width="32.62" height="52.28" rx="16.29"/>
  <rect class="cls-5" x="1170.81" y="459.64" width="32.62" height="52.28" rx="16.29"/>
  <rect class="cls-6" x="1120.94" y="530.04" width="32.62" height="52.28" rx="16.29"/>
  <rect class="cls-12" x="601.94" y="660.11" width="340.64" height="77.63"/>
  <rect class="cls-4" x="826.43" y="660.11" width="116.15" height="77.63"/>
  <path class="cls-9" d="M570.32,584.9s17.78,5.81,21.56-20.37l-30.21,7.11Z"/>
  <path class="cls-7" d="M923.21,221.94s36.16-6.9,48.62-56.76S957.75,75.71,983.39,69.6s36.28,58.92,36.28,58.92,1,50.87-47.84,113.78Z"/>
  <path class="cls-5" d="M1000,57.79c21.28,7.57,54.52,22.61,77,48.09a66.43,66.43,0,0,1,15.83,53.56l-10,68.4h-23.9l1.08-62.33A30.67,30.67,0,0,0,1038.37,136c-25.81-7.89-65.41-25.43-65.46-58.68A20.37,20.37,0,0,1,993,56.65,20.61,20.61,0,0,1,1000,57.79Z"/>
  <path class="cls-8" d="M1000,57.79c21.28,7.57,54.52,22.61,77,48.09a66.43,66.43,0,0,1,15.83,53.56l-10,68.4h-23.9l1.08-62.33A30.67,30.67,0,0,0,1038.37,136c-25.81-7.89-65.41-25.43-65.46-58.68A20.37,20.37,0,0,1,993,56.65,20.61,20.61,0,0,1,1000,57.79Z"/>
  <rect class="cls-7" x="785.99" y="603.43" width="155.13" height="18.87"/>
</svg>
