<svg id="Ebene_1" data-name="Ebene 1" xmlns="http://www.w3.org/2000/svg" viewBox="0 0 1500 1000">
  <defs>
    <style>
      .cls-1 {
        fill: #041e42;
      }

      .cls-2 {
        fill: #ffd200;
      }

      .cls-12, .cls-13, .cls-3 {
        fill: #ced9e7;
      }

      .cls-4, .cls-8 {
        fill: #fff;
      }

      .cls-11, .cls-12, .cls-13, .cls-4, .cls-7 {
        isolation: isolate;
      }

      .cls-4 {
        opacity: 0.46;
      }

      .cls-5 {
        fill: #f4a28c;
      }

      .cls-6 {
        fill: #24285b;
      }

      .cls-7 {
        fill: #ce8172;
        opacity: 0.31;
      }

      .cls-9 {
        fill: #c9c9c9;
      }

      .cls-10 {
        fill: #e6e6e6;
      }

      .cls-11 {
        opacity: 0.08;
      }

      .cls-12 {
        opacity: 0.58;
      }

      .cls-13 {
        opacity: 0.73;
      }
    </style>
  </defs>
  <g>
    <rect class="cls-1" x="-5015.5" y="-2999.5" width="9625" height="9685"/>
    <path d="M4609-2999V6685H-5015V-2999H4609m1-1H-5016V6686H4610V-3000Z"/>
  </g>
  <g>
    <path class="cls-2" d="M1053.66,405.17s171.86-52.8,195.58,61.27-24.67,241.25-24.67,241.25H944.7Z"/>
    <path class="cls-3" d="M825.21,351.89s-91-4.29-109,86.19,12.63,216.29,12.63,216.29L591.61,691.28l6.92,16.37H794.36l60.15-140.93Z"/>
    <path class="cls-4" d="M825.21,351.89s-91-4.29-109,86.19,12.63,216.29,12.63,216.29L591.61,691.28l6.92,16.37H794.36l60.15-140.93Z"/>
    <path class="cls-5" d="M885.71,231.68s-1.34,28.95,4.29,47.94a14.57,14.57,0,0,0,18.14,9.77h0c9.54-3,21.48-9.76,24.14-25.18l7.61-25.78a26,26,0,0,0-12.59-27.33C910.63,200.14,885.62,214,885.71,231.68Z"/>
    <polygon class="cls-5" points="937.95 251.65 948.74 346.01 896.28 348.2 909.51 278.68 937.95 251.65"/>
    <path class="cls-6" d="M893,232.58a114,114,0,0,0,26.59-3.14A24.15,24.15,0,0,0,920.64,256a19.72,19.72,0,0,0,24.06,6.88l-2-37.21a29.68,29.68,0,0,0-16-25.78,106.89,106.89,0,0,0-12.89-5.54c-10.87-3.87-26.3,3.95-36.18-2.88A7,7,0,0,0,868,193.2a7,7,0,0,0-1.19,3.24c-1.25,11.39,1.5,29.09,17.18,34.63A25.72,25.72,0,0,0,893,232.58Z"/>
    <path class="cls-5" d="M917.5,255.22s0-11.17,8.16-10.66,8.85,16.63-2.45,18.61Z"/>
    <path class="cls-5" d="M885.84,250l-7.61,11.47a4.64,4.64,0,0,0,1.27,6.44,4.71,4.71,0,0,0,1.91.74l11.17,1.63Z"/>
    <path class="cls-7" d="M910.24,280.91a34.38,34.38,0,0,0,19-5.62s-.78,17.53-23.46,29.47Z"/>
    <path class="cls-3" d="M825.21,351.89s204.22-39.14,274,0-76.61,403.28-76.61,403.28l-215.08-6.79S619.32,389.32,825.21,351.89Z"/>
    <rect class="cls-2" x="1146.03" y="125.04" width="248.47" height="170.83"/>
    <path class="cls-8" d="M1236.86,244a5.63,5.63,0,0,1-3.56-1.24l-37.25-29.43a5.69,5.69,0,0,1,0-9l37.25-30.08a5.76,5.76,0,1,1,7.21,9l-31.62,25.44,31.58,25a5.75,5.75,0,0,1,1.17,8.06c-.05.08-.12.15-.18.23A5.63,5.63,0,0,1,1236.86,244Z"/>
    <path class="cls-8" d="M1304.32,244a5.59,5.59,0,0,1-4.51-2.19,5.76,5.76,0,0,1,.94-8.08l31.58-25-31.62-25.43a5.76,5.76,0,1,1,7.22-9l37.25,30.07a5.71,5.71,0,0,1,1,8,6.1,6.1,0,0,1-1,1l-37.25,29.43A5.56,5.56,0,0,1,1304.32,244Z"/>
    <path class="cls-8" d="M1255,244a5.73,5.73,0,0,1-5.2-8.12l27.11-59.42a5.76,5.76,0,0,1,10.49,4.77l-27.16,59.42A5.69,5.69,0,0,1,1255,244Z"/>
    <rect class="cls-9" x="197.57" y="732.95" width="1090.46" height="258.35"/>
    <rect class="cls-10" x="197.57" y="707.47" width="1090.46" height="46.62"/>
    <rect class="cls-6" x="105.5" y="155.15" width="431.29" height="340.67"/>
    <rect class="cls-3" x="231.56" y="344.42" width="138.52" height="15.51"/>
    <rect class="cls-2" x="271.3" y="301.24" width="123.87" height="15.51"/>
    <rect class="cls-2" x="324.06" y="421.28" width="64.62" height="15.51"/>
    <rect class="cls-3" x="271.3" y="381.88" width="165.07" height="15.51"/>
    <rect class="cls-8" x="180.17" y="381.88" width="62.08" height="15.51"/>
    <rect class="cls-8" x="242" y="422.61" width="62.08" height="15.51"/>
    <rect class="cls-8" x="140.43" y="344.42" width="62.08" height="15.51"/>
    <circle class="cls-8" cx="133.73" cy="181.28" r="7.3"/>
    <circle class="cls-3" cx="155.47" cy="181.28" r="7.3"/>
    <circle class="cls-2" cx="175.96" cy="181.28" r="7.3"/>
    <rect class="cls-8" x="140.43" y="226.52" width="62.08" height="15.51"/>
    <rect class="cls-8" x="180.17" y="265.27" width="62.08" height="15.51"/>
    <rect class="cls-2" x="271.3" y="265.27" width="123.87" height="15.51"/>
    <rect class="cls-8" x="180.17" y="301.24" width="62.08" height="15.51"/>
    <rect class="cls-3" x="227.35" y="226.52" width="127.91" height="15.51"/>
    <rect class="cls-3" x="381.98" y="226.52" width="90.79" height="15.51"/>
    <path class="cls-5" d="M884.85,681.65s-93.8-27.15-82.54,25.78h82.54Z"/>
    <rect class="cls-10" x="682.09" y="692.91" width="177.4" height="14.57"/>
    <rect class="cls-10" x="411.45" y="336.81" width="373.2" height="282.54"/>
    <path class="cls-11" d="M1008.59,370.45s-73.26,53.41-40,151.71c49.62,146.47-199.45,139.17-199.45,139.17l20.28,48.89,285.85-24.53,24.88-98.82Z"/>
    <polygon class="cls-9" points="563.81 513.06 523.68 707.47 722.22 707.47 722.22 681.65 622.97 675.29 614.51 513.06 563.81 513.06"/>
    <path class="cls-3" d="M1005.75,382.05a51.55,51.55,0,0,1,57.49-44.84,50.85,50.85,0,0,1,6,1.11c39.79,9.88,89.76,41.16,97.24,134.91,12.67,159-32.4,234.24-32.4,234.24H884.85V675.85l173-21.14S992.26,491.66,1005.75,382.05Z"/>
    <path class="cls-4" d="M1005.75,382.05a51.55,51.55,0,0,1,57.49-44.84,50.85,50.85,0,0,1,6,1.11c39.79,9.88,89.76,41.16,97.24,134.91,12.67,159-32.4,234.24-32.4,234.24H884.85V675.85l173-21.14S992.26,491.66,1005.75,382.05Z"/>
    <path class="cls-12" d="M292.78,665.75s-35.18-9.62-43-42.4c0,0,54.56-11,56.11,45.28Z"/>
    <path class="cls-13" d="M297.12,662.23s-24.62-38.88-3-75.27c0,0,41.5,26.38,23.07,75.36Z"/>
    <path class="cls-3" d="M303.44,662.27s12.89-41.07,52.33-48.85c0,0,7.35,26.64-25.48,49Z"/>
    <polygon class="cls-6" points="277.92 661.33 285.05 710.18 329.99 710.4 336.65 661.59 277.92 661.33"/>
  </g>
</svg>
