<svg id="Ebene_1" data-name="Ebene 1" xmlns="http://www.w3.org/2000/svg" viewBox="0 0 1500 1000">
  <defs>
    <style>
      .cls-1 {
        fill: #041e42;
      }

      .cls-2 {
        fill: #e6e6e6;
      }

      .cls-3, .cls-6, .cls-9 {
        fill: #fff;
      }

      .cls-12, .cls-13, .cls-3, .cls-6, .cls-8 {
        isolation: isolate;
      }

      .cls-3 {
        opacity: 0.56;
      }

      .cls-4 {
        fill: #24285b;
      }

      .cls-5 {
        fill: #68e1fd;
      }

      .cls-13, .cls-6 {
        opacity: 0.44;
      }

      .cls-7 {
        fill: #ffd200;
      }

      .cls-8 {
        opacity: 0.08;
      }

      .cls-10 {
        fill: #f4a28c;
      }

      .cls-11, .cls-12 {
        fill: none;
        stroke-linecap: round;
        stroke-linejoin: round;
        stroke-width: 2.03px;
      }

      .cls-11 {
        stroke: #e6e6e6;
      }

      .cls-12 {
        stroke: #000;
        opacity: 0.12;
      }

      .cls-13 {
        fill: #c7c9c9;
      }
    </style>
  </defs>
  <g>
    <rect class="cls-1" x="-2680.5" y="-1654.5" width="5067" height="4126"/>
    <path d="M2386-1654V2471H-2680V-1654H2386m1-1H-2681V2472H2387V-1655Z"/>
  </g>
  <rect class="cls-2" x="292.02" y="175.7" width="878.97" height="717.37"/>
  <rect class="cls-3" x="292.02" y="175.7" width="878.97" height="717.37"/>
  <circle class="cls-4" cx="366.82" cy="243.84" r="19.31"/>
  <rect class="cls-5" x="424.23" y="505.15" width="602.5" height="191.11"/>
  <rect class="cls-6" x="424.23" y="505.15" width="602.5" height="191.11"/>
  <circle class="cls-5" cx="424.23" cy="243.84" r="19.31"/>
  <circle class="cls-7" cx="478.32" cy="243.84" r="19.31"/>
  <rect class="cls-5" x="424.23" y="478.31" width="602.5" height="191.11"/>
  <path class="cls-8" d="M967.88,613.67s-35,12.09-17.17,55.75,51.42,126.43,51.42,126.43l-34.6,4s-15.72,32.84,24.52,42.92,64.86,50.27,64.86,50.27h76l-14.5-80.45s-86.1-110.84-91.7-116.36S967.88,613.67,967.88,613.67Z"/>
  <path class="cls-9" d="M582.54,565.06H569.41a12.32,12.32,0,0,0-1-3.63,9,9,0,0,0-5.35-4.38,12,12,0,0,0-4-.62,11.75,11.75,0,0,0-6.74,1.89,12.35,12.35,0,0,0-4.38,5.56,22.77,22.77,0,0,0-1.53,8.76,23.1,23.1,0,0,0,1.53,9,11.2,11.2,0,0,0,11,7.27,13.81,13.81,0,0,0,3.94-.52,9.83,9.83,0,0,0,3.11-1.62,8.86,8.86,0,0,0,2.24-2.63,9.94,9.94,0,0,0,1.22-3.46H582.5a19.77,19.77,0,0,1-2.06,7.05,24.13,24.13,0,0,1-4.73,6.35,22.78,22.78,0,0,1-7.31,4.38,27.13,27.13,0,0,1-9.85,1.66,26.42,26.42,0,0,1-13.14-3.24,22.9,22.9,0,0,1-9.11-9.37,35.52,35.52,0,0,1,0-30.13,23.53,23.53,0,0,1,9.2-9.41,26.16,26.16,0,0,1,13.13-3.2,28.47,28.47,0,0,1,9.07,1.36A22.25,22.25,0,0,1,575,550a20.35,20.35,0,0,1,5.13,6.35A23,23,0,0,1,582.54,565.06Z"/>
  <path class="cls-9" d="M602.82,545.57v53.87H590V545.57Z"/>
  <path class="cls-9" d="M617.32,554.33a6.76,6.76,0,0,1-4.69-1.79,5.93,5.93,0,0,1-.41-8.36c.13-.14.27-.27.41-.4a7,7,0,0,1,9.33,0,5.91,5.91,0,0,1,.41,8.35l-.41.41A6.61,6.61,0,0,1,617.32,554.33Zm-6.48,45.11V559h12.87v40.42Z"/>
  <path class="cls-9" d="M650.86,600.23a21.6,21.6,0,0,1-11-2.68,17.44,17.44,0,0,1-7-7.31,22.69,22.69,0,0,1-2.46-10.82,23.28,23.28,0,0,1,2.46-10.9,17.73,17.73,0,0,1,7-7.36,21.74,21.74,0,0,1,10.91-2.63,22.29,22.29,0,0,1,9.81,2.06,15.58,15.58,0,0,1,6.52,5.7,16.91,16.91,0,0,1,2.46,8.75h-12a8.34,8.34,0,0,0-2.11-4.86,5.93,5.93,0,0,0-4.38-1.75,6.49,6.49,0,0,0-3.94,1.23,8.14,8.14,0,0,0-2.62,3.68,20.23,20.23,0,0,0,0,12.08,8.14,8.14,0,0,0,2.62,3.68,6.51,6.51,0,0,0,3.94,1.27,6.23,6.23,0,0,0,3.16-.79,5.89,5.89,0,0,0,2.28-2.23,8.62,8.62,0,0,0,1.13-3.63h12a17.09,17.09,0,0,1-2.45,8.75,15.19,15.19,0,0,1-6.48,5.79A21.5,21.5,0,0,1,650.86,600.23Z"/>
  <path class="cls-9" d="M676.22,599.44V545.57h12.87v53.87Zm11.6-10.6V573.51h1.8L701,559h14.59l-16.91,20.75h-3.41Zm13.49,10.6-10.55-16.78,8.45-9.15,17,25.93Z"/>
  <path class="cls-9" d="M736.17,599.44V545.57h13.14v21.64h21.28V545.57h13.14v53.87H770.59V577.8H749.35v21.64Z"/>
  <path class="cls-9" d="M810.49,600.23a22.76,22.76,0,0,1-11-2.54,17.56,17.56,0,0,1-7-7.19A23.66,23.66,0,0,1,790,579.38a23,23,0,0,1,2.49-11,18.1,18.1,0,0,1,7-7.31,20.55,20.55,0,0,1,10.59-2.63,22.59,22.59,0,0,1,7.89,1.36,16.8,16.8,0,0,1,6.21,4,18.26,18.26,0,0,1,4,6.49,24.59,24.59,0,0,1,1.45,8.75v3.24h-35V575H817.8a7.57,7.57,0,0,0-1-3.63,7,7,0,0,0-2.63-2.54,7.49,7.49,0,0,0-3.77-.92,8,8,0,0,0-3.85,1,7.54,7.54,0,0,0-2.72,2.63,7.62,7.62,0,0,0-1,3.72v7.58a9,9,0,0,0,1,4.38,7.31,7.31,0,0,0,2.76,2.89,8.26,8.26,0,0,0,4.38,1,9.64,9.64,0,0,0,3.06-.48,6.87,6.87,0,0,0,2.41-1.4,5.52,5.52,0,0,0,1.49-2.28l11.82.35a15,15,0,0,1-3.19,6.92,17,17,0,0,1-6.53,4.38A25.44,25.44,0,0,1,810.49,600.23Z"/>
  <path class="cls-9" d="M836.28,599.44V559h12.48v7.27h.44a11.09,11.09,0,0,1,3.59-6,9.36,9.36,0,0,1,5.83-1.93h1.84a9.61,9.61,0,0,1,1.75.39v11.17a11.78,11.78,0,0,0-2.41-.52h-2.63a8.83,8.83,0,0,0-4.12,1,7.6,7.6,0,0,0-2.89,2.85,8.79,8.79,0,0,0-1,4.38v21.9Z"/>
  <path class="cls-9" d="M884.45,600.23a22.72,22.72,0,0,1-10.94-2.54,17.09,17.09,0,0,1-7-7.19,26,26,0,0,1,0-21.89,18.13,18.13,0,0,1,7-7.32,20.57,20.57,0,0,1,10.6-2.62,22.71,22.71,0,0,1,7.88,1.35,16.84,16.84,0,0,1,6.18,4,17.8,17.8,0,0,1,4.07,6.48,25.14,25.14,0,0,1,1.45,8.76v3.24h-35V575h23.12a6.75,6.75,0,0,0-1-3.63,6.63,6.63,0,0,0-2.58-2.54,7.65,7.65,0,0,0-3.77-.92,8.39,8.39,0,0,0-3.9,1,7.4,7.4,0,0,0-2.67,2.63,6.72,6.72,0,0,0-1.05,3.72v7.58a9.11,9.11,0,0,0,1,4.38,7.38,7.38,0,0,0,2.76,2.89,8.28,8.28,0,0,0,4.38,1,9.63,9.63,0,0,0,3.11-.48,7.29,7.29,0,0,0,2.41-1.4A5.94,5.94,0,0,0,891.9,587l11.82.35a14.7,14.7,0,0,1-3.24,6.92,16.64,16.64,0,0,1-6.52,4.38A25.49,25.49,0,0,1,884.45,600.23Z"/>
  <path class="cls-10" d="M1030.11,771.24s-77.56-146-59.65-171.8,93.94,120.34,93.94,120.34,70.81-35,92.4-10.42,23.87,117.76,23.87,117.76l-80.75,30.65s-53.43-38.89-98.14-41.12C965.16,814.86,930.57,769.75,1030.11,771.24Z"/>
  <polygon class="cls-7" points="1099.92 857.82 1170.99 1070.13 1285.03 1009.03 1180.67 827.12 1099.92 857.82"/>
  <rect class="cls-4" x="1045.74" y="97" width="180.03" height="180.03"/>
  <line class="cls-11" x1="1179.05" y1="144.78" x2="1099.57" y2="224.26"/>
  <line class="cls-11" x1="1179.31" y1="225.71" x2="1099.83" y2="146.22"/>
  <line class="cls-12" x1="1030.5" y1="455.62" x2="1030.5" y2="427.77"/>
  <line class="cls-12" x1="1054.41" y1="479.4" x2="1082.31" y2="479.4"/>
  <line class="cls-12" x1="1046.66" y1="463.9" x2="1064.18" y2="442.18"/>
  <rect class="cls-13" x="635.01" y="746.63" width="210.21" height="56.67"/>
  <rect class="cls-13" x="566.03" y="346.36" width="348.86" height="38.01"/>
</svg>
