<svg id="Ebene_1" data-name="Ebene 1" xmlns="http://www.w3.org/2000/svg" viewBox="0 0 1500 1000">
  <defs>
    <style>
      .cls-1 {
        fill: #041e42;
      }

      .cls-2, .cls-5 {
        fill: #e6e6e6;
      }

      .cls-11, .cls-13, .cls-14, .cls-15, .cls-2, .cls-3, .cls-8 {
        isolation: isolate;
      }

      .cls-2 {
        opacity: 0.45;
      }

      .cls-3, .cls-4 {
        fill: #c9c9c9;
      }

      .cls-3 {
        opacity: 0.27;
      }

      .cls-6 {
        fill: #a5a5a5;
      }

      .cls-7 {
        fill: #24285b;
      }

      .cls-8 {
        opacity: 0.08;
      }

      .cls-14, .cls-15, .cls-9 {
        fill: #ced9e7;
      }

      .cls-10 {
        fill: #f4a28c;
      }

      .cls-11 {
        fill: #ce8172;
        opacity: 0.31;
      }

      .cls-12 {
        fill: #ffd200;
      }

      .cls-13 {
        fill: #fff;
        opacity: 0.46;
      }

      .cls-14 {
        opacity: 0.58;
      }

      .cls-15 {
        opacity: 0.73;
      }
    </style>
  </defs>
  <g>
    <rect class="cls-1" x="-7288.5" y="-1654.5" width="9625" height="9685"/>
    <path d="M2336-1654V8030H-7288V-1654H2336m1-1H-7289V8031H2337V-1655Z"/>
  </g>
  <g>
    <ellipse class="cls-2" cx="750" cy="869.18" rx="567.27" ry="67.82"/>
    <rect class="cls-3" x="376.01" y="113" width="857.11" height="556.9"/>
    <polygon class="cls-4" points="739.82 606.3 707.28 813.1 924.38 813.1 874.46 606.3 739.82 606.3"/>
    <rect class="cls-5" x="376.01" y="542.7" width="857.11" height="127.2"/>
    <circle class="cls-6" cx="809.37" cy="598.7" r="34.43"/>
    <rect class="cls-5" x="657.72" y="776.86" width="305.36" height="66.45"/>
    <path class="cls-7" d="M1017.91,139.31s18.18-15.37,32.46-4.67,4.59,54.15,35.68,44.25c0,0-33.79,28.16-57.44-17.74Z"/>
    <rect class="cls-5" x="449.79" y="185.97" width="436.18" height="288.06"/>
    <rect class="cls-6" x="438.32" y="474.03" width="459.11" height="18.34"/>
    <path class="cls-8" d="M886,444v30H816c-52.29-44.25-31.82-138.78-32.42-156.24-.77-22.77,10-16.09,10-16.09L809.94,346l23.13,57.81Z"/>
    <path class="cls-9" d="M1032.39,169.08s12.35-1.73,7.28-18.59-19.07-16.09-23.05-11.79Z"/>
    <path class="cls-10" d="M995.38,159.94a91.88,91.88,0,0,0,5.79,23.78,7.41,7.41,0,0,0,9.85,3.54h0a16.1,16.1,0,0,0,10.22-14.48l1.93-13.48a13.2,13.2,0,0,0-8.41-12.75C1005.64,142.24,994.13,151.09,995.38,159.94Z"/>
    <polygon class="cls-10" points="1026.32 166.78 1035.89 214.09 1009.46 217.51 1013 182.63 1026.32 166.78"/>
    <path class="cls-10" d="M997,169.12l-3,6.35a2.34,2.34,0,0,0,1.1,3.11,2.39,2.39,0,0,0,1.08.23h5.71Z"/>
    <path class="cls-11" d="M1012.92,183.6a17.88,17.88,0,0,0,8.05-5.23s3,10.14-9.1,15.24Z"/>
    <path class="cls-10" d="M1025.31,167s-1-5.59,3.3-5.95,5.71,7.68,0,9.53Z"/>
    <path class="cls-7" d="M998.4,158.7a43.25,43.25,0,0,0,14-1.65s4.87,16.09,18.18,18.54c0,0,9.49-25.66-6.6-33.35-13.43-6.43-23.57-12.34-32.82-1.81a11,11,0,0,0,7.2,18.27Z"/>
    <path class="cls-10" d="M976.23,359.63s-.84,101.69-69.71,108.61S797.39,338.83,797.39,338.83s-11.75-13.8,0-23c0,0-8-21.4-1-22.44s16.33,36.72,16.33,36.72,40,70.24,73.3,75.67S891.76,301.58,966.74,248,976.23,359.63,976.23,359.63Z"/>
    <path class="cls-10" d="M1013.16,165.66s0-6.6,5.23-6.16,6.08,8.05,0,11.79Z"/>
    <path class="cls-9" d="M1035.89,214.09l-26.43,3.42s-143.08,68.67-61.18,165.37A54.87,54.87,0,0,1,961,411.32l7.4,59.37h107.4S1231.07,248.76,1035.89,214.09Z"/>
    <path class="cls-8" d="M1035.13,269.08a71.76,71.76,0,0,0,11.1,88.5c41.19,43.12,17.3,80.73-29.61,51.21s-54.55,8.93-54.55,8.93l2.78,24.13,73.09-.8,81,.32,28.48-67.58Z"/>
    <rect class="cls-12" x="930.41" y="302.76" width="82.99" height="110.14" transform="translate(-63.75 350.38) rotate(-19.8)"/>
    <path class="cls-8" d="M968.11,383.64s-25.26,5.68-16.62,40l43.57-15.29Z"/>
    <polygon class="cls-7" points="1122.42 542.74 1099.65 442.05 964.85 442.05 948.2 542.74 1122.42 542.74"/>
    <path class="cls-10" d="M1035.13,269.08c-1.69-31.74,35.15-50.61,60.9-32,34.75,25.14,84.07,67.94,70.64,179.13-16.34,134.84-185.41-4.91-185.41-4.91l7-17.78s92.92,58.09,117.87,21.64c7.68-11.22-2.86-28.16-10.75-41.63C1081.06,349.25,1037.14,307.78,1035.13,269.08Z"/>
    <path class="cls-10" d="M988.26,393.54s-7-18.18-18.58-14.16-3.22,28.16,11.58,29.57Z"/>
    <path class="cls-9" d="M1046.23,216.18s3.66-11.42-17.42-13.8-37.93,6.56-31,21.48C997.8,223.86,1013.73,236.54,1046.23,216.18Z"/>
    <path class="cls-13" d="M1046.23,216.18s3.66-11.42-17.42-13.8-37.93,6.56-31,21.48C997.8,223.86,1013.73,236.54,1046.23,216.18Z"/>
    <rect class="cls-7" x="973.59" y="398.69" width="26.63" height="14" transform="translate(50.82 917.84) rotate(-51.03)"/>
    <rect class="cls-8" x="701.97" y="237.22" width="99.96" height="12.35"/>
    <rect class="cls-8" x="508.84" y="237.22" width="183.55" height="12.35"/>
    <rect class="cls-8" x="508.84" y="277.65" width="47.31" height="12.35"/>
    <rect class="cls-8" x="574.61" y="277.65" width="166.38" height="12.35"/>
    <rect class="cls-8" x="508.84" y="318.03" width="113.04" height="12.35"/>
    <rect class="cls-8" x="637.61" y="318.03" width="99.96" height="12.35"/>
    <rect class="cls-8" x="508.84" y="358.42" width="52.09" height="12.35"/>
    <rect class="cls-8" x="569.83" y="358.42" width="134.2" height="12.35"/>
    <path class="cls-14" d="M1112.28,825.13s-34.23-9.37-41.67-41.23c0,0,53.05-10.74,54.58,44.05Z"/>
    <path class="cls-15" d="M1116.5,821.71s-23.93-37.81-2.89-73.21c0,0,40.22,25.62,22.44,73.29Z"/>
    <path class="cls-9" d="M1122.66,821.75s12.63-39.94,50.89-47.55c0,0,7.16,25.95-24.78,47.67Z"/>
    <polygon class="cls-7" points="1097.8 820.83 1104.76 868.33 1148.48 868.53 1154.96 821.07 1097.8 820.83"/>
    <path class="cls-10" d="M403.17,504.08s76.75,20.76,113.64,3.66,32.5-97.35,32.5-97.35-2.94-34.67-1.45-36.68,6.24,0,5.67,12.07a10.12,10.12,0,0,1,9.94,7.72,14.75,14.75,0,0,1-3.5,13.19s36.73,87.94-9,131.38-147.83,9.86-147.83,9.86Z"/>
    <path class="cls-10" d="M417.41,443.74a84.69,84.69,0,0,1,3.09,22.61,6.87,6.87,0,0,1-7.29,6.44h-.07a15.16,15.16,0,0,1-13.83-9.1l-6.24-11.1a12.35,12.35,0,0,1,2.94-14C402.6,431.8,415.6,435.58,417.41,443.74Z"/>
    <polygon class="cls-10" points="395.64 455.37 384.86 499.13 409.4 503.36 407.43 470.65 395.64 455.37"/>
    <path class="cls-10" d="M419.3,452.19l4.87,4.42a2.22,2.22,0,0,1,.07,3.13,2.27,2.27,0,0,1-.8.54l-5,1.93Z"/>
    <path class="cls-11" d="M407.51,471.58a34.89,34.89,0,0,1-10.66-7.28s.48,18,11.59,23.25Z"/>
    <path class="cls-10" d="M403.77,456.21s-1.09-5.19-4.91-4-2.33,8.65,3.1,8.33Z"/>
    <path class="cls-10" d="M396,450.86s-6.68-4-9.18,1.33,5,9.49,10.06,6.28A11,11,0,0,1,396,450.86Z"/>
    <rect class="cls-5" x="291.18" y="744.8" width="159.3" height="113.84"/>
    <polygon class="cls-8" points="408.44 858.64 416.12 758.39 448.06 763.26 457.59 801.72 450.51 858.64 408.44 858.64"/>
    <path class="cls-9" d="M412.46,845.48s3.42,9.5,12.07,10.22,10.82,9.09,3.09,11.31S400,859.24,400,859.24l.56-12.35Z"/>
    <path class="cls-9" d="M411.49,502.88,387,498.61s-81.58,0-95.86,28.16S279.79,658.71,327,744l96.54,2.82s-5.39-62.71,12.63-96.87S516.69,581.32,411.49,502.88Z"/>
    <path class="cls-7" d="M327,744l47.26-7.12A45.29,45.29,0,0,1,426,786.23l-6.2,60.06H396.65l2-56.32a21.28,21.28,0,0,0-20.47-22.06,21.8,21.8,0,0,0-4.19.26C353.89,771.51,329,770.1,327,744Z"/>
    <path class="cls-9" d="M460.57,845.48S464,855,472.64,855.7s10.82,9.09,3.1,11.31-27.6-7.77-27.6-7.77l.56-12.35Z"/>
    <path class="cls-8" d="M335.26,536.71s26.8,23.49,21.41,49.39c-.85,4.23-1.77,9.3-2.66,14.81a148,148,0,0,0,34.72,121.2l16.89,19.31L327,744l-6.72-13.15-36.69-61.06Z"/>
    <path class="cls-7" d="M375.09,744l47.26-7.12a45.27,45.27,0,0,1,51.51,38,46,46,0,0,1,.27,11.36l-6.2,60.06H444.76l2-56.32a21.28,21.28,0,0,0-20.47-22.06,21.8,21.8,0,0,0-4.19.26C402,771.51,377.1,770.1,375.09,744Z"/>
    <path class="cls-10" d="M392,718.09l-56.31-14a21.46,21.46,0,0,1-17.5-27.56C328,644,343.35,585.06,339.41,543a27.64,27.64,0,0,0-50-13.8c-17.9,25.19-33.83,80.82-20.12,159.22a52.5,52.5,0,0,0,48.28,43.2L392,736.35s21.4,12.27,25.71-3.38S392,718.09,392,718.09Z"/>
    <path class="cls-7" d="M403.77,440h.48a26.59,26.59,0,0,0,4.79,1.41,8,8,0,0,0,7.8-5.67,11.05,11.05,0,0,0-2.25-9.78c-6.15-7.76-16.85-7.44-25.1-3.46a40.81,40.81,0,0,0-21.88,21.77,114.94,114.94,0,0,1-9.78,20.11A37.06,37.06,0,0,1,343,476.65,40.19,40.19,0,0,0,376.46,490a20.51,20.51,0,0,0,18.74-30.65c-1.65-2.37-8.65-5.71-3.46-9.53,1.57-1.13,4.31,0,4.27,1.81a24.12,24.12,0,0,1,1.65-8.77,5.88,5.88,0,0,1,1.77-2.62A5.12,5.12,0,0,1,403.77,440Z"/>
    <rect class="cls-12" x="420.38" y="696.53" width="203.71" height="182.83"/>
    <rect class="cls-12" x="409.4" y="675.29" width="225.71" height="21.24"/>
    <path class="cls-8" d="M624.09,696.53V737a95.23,95.23,0,0,1-9,6c-15,8.81-32.18,13.31-48,20.51C526.82,781.6,495.89,816.64,476.1,856c-3.82,7.61-7.28,15.41-10.38,23.29H420.38V696.53Z"/>
    <rect class="cls-7" x="451.8" y="653.89" width="114.08" height="21.4"/>
    <rect class="cls-7" x="462.82" y="634.34" width="114.08" height="19.55"/>
    <rect class="cls-13" x="462.82" y="634.34" width="114.08" height="19.55"/>
  </g>
</svg>
